<svg width="20" height="20" viewBox="0 0 20 20" fill="none" xmlns="http://www.w3.org/2000/svg">
<path d="M10.0009 3.77417C10.9532 2.92221 12.1955 2.46719 13.4728 2.50252C14.7501 2.53786 15.9654 3.06087 16.8692 3.96417C17.772 4.86682 18.2953 6.08062 18.3319 7.35674C18.3684 8.63286 17.9155 9.87463 17.0659 10.8275L9.99919 17.9042L2.93419 10.8275C2.08356 9.87413 1.63019 8.6313 1.66713 7.35415C1.70408 6.07701 2.22854 4.86246 3.13285 3.95986C4.03716 3.05725 5.25269 2.53509 6.52991 2.50055C7.80712 2.46602 9.04909 2.92175 10.0009 3.77417ZM15.6892 5.14167C15.087 4.54047 14.2776 4.19235 13.427 4.16865C12.5764 4.14494 11.749 4.44745 11.1142 5.01417L10.0017 6.0125L8.88835 5.015C8.25641 4.44991 7.4329 4.14683 6.58541 4.16743C5.73791 4.18804 4.9301 4.53078 4.32637 5.12591C3.72264 5.72104 3.36834 6.52385 3.33558 7.37096C3.30282 8.21808 3.59405 9.04585 4.15002 9.68583L10 15.545L15.85 9.68667C16.4036 9.0495 16.6949 8.22603 16.6651 7.38248C16.6352 6.53892 16.2865 5.7381 15.6892 5.14167Z" fill="url(#paint0_linear_34_114)"/>
<defs>
<linearGradient id="paint0_linear_34_114" x1="9.99947" y1="2.49873" x2="9.99947" y2="17.9042" gradientUnits="userSpaceOnUse">
<stop stop-color="#7A0068"/>
<stop offset="0.586538" stop-color="#7A0068"/>
<stop offset="1" stop-color="#E000BF"/>
</linearGradient>
</defs>
</svg>
