<svg width="28" height="28" viewBox="0 0 28 28" fill="none" xmlns="http://www.w3.org/2000/svg">
<path d="M3 7.09091C3 6.00593 3.43101 4.96539 4.1982 4.1982C4.96539 3.43101 6.00593 3 7.09091 3H22.9091C23.9941 3 25.0346 3.43101 25.8018 4.1982C26.569 4.96539 27 6.00593 27 7.09091V22.9091C27 23.9941 26.569 25.0346 25.8018 25.8018C25.0346 26.569 23.9941 27 22.9091 27H7.09091C6.00593 27 4.96539 26.569 4.1982 25.8018C3.43101 25.0346 3 23.9941 3 22.9091V7.09091ZM4.63636 19.9091V22.9091C4.63636 23.5601 4.89497 24.1844 5.35528 24.6447C5.8156 25.105 6.43992 25.3636 7.09091 25.3636H10.0909V19.9091H4.63636ZM10.0909 18.2727V11.7273H4.63636V18.2727H10.0909ZM11.7273 19.9091V25.3636H18.2727V19.9091H11.7273ZM18.2727 18.2727V11.7273H11.7273V18.2727H18.2727ZM19.9091 19.9091V25.3636H22.9091C23.5601 25.3636 24.1844 25.105 24.6447 24.6447C25.105 24.1844 25.3636 23.5601 25.3636 22.9091V19.9091H19.9091ZM25.3636 18.2727V11.7273H19.9091V18.2727H25.3636ZM25.3636 7.09091C25.3636 6.43992 25.105 5.8156 24.6447 5.35528C24.1844 4.89497 23.5601 4.63636 22.9091 4.63636H19.9091V10.0909H25.3636V7.09091ZM18.2727 4.63636H11.7273V10.0909H18.2727V4.63636ZM10.0909 4.63636H7.09091C6.43992 4.63636 5.8156 4.89497 5.35528 5.35528C4.89497 5.8156 4.63636 6.43992 4.63636 7.09091V10.0909H10.0909V4.63636Z" fill="black"/>
</svg>
