<svg width="40" height="40" viewBox="0 0 40 40" fill="none" xmlns="http://www.w3.org/2000/svg">
<mask id="path-1-inside-1_21_21" fill="white">
<path d="M0 6.81818C0 5.00989 0.718342 3.27566 1.997 1.997C3.27566 0.718342 5.00989 0 6.81818 0H33.1818C34.9901 0 36.7243 0.718342 38.003 1.997C39.2817 3.27566 40 5.00989 40 6.81818V33.1818C40 34.9901 39.2817 36.7243 38.003 38.003C36.7243 39.2817 34.9901 40 33.1818 40H6.81818C5.00989 40 3.27566 39.2817 1.997 38.003C0.718342 36.7243 0 34.9901 0 33.1818V6.81818ZM2.72727 28.1818V33.1818C2.72727 34.2668 3.15828 35.3073 3.92547 36.0745C4.69267 36.8417 5.73321 37.2727 6.81818 37.2727H11.8182V28.1818H2.72727ZM11.8182 25.4545V14.5455H2.72727V25.4545H11.8182ZM14.5455 28.1818V37.2727H25.4545V28.1818H14.5455ZM25.4545 25.4545V14.5455H14.5455V25.4545H25.4545ZM28.1818 28.1818V37.2727H33.1818C34.2668 37.2727 35.3073 36.8417 36.0745 36.0745C36.8417 35.3073 37.2727 34.2668 37.2727 33.1818V28.1818H28.1818ZM37.2727 25.4545V14.5455H28.1818V25.4545H37.2727ZM37.2727 6.81818C37.2727 5.73321 36.8417 4.69267 36.0745 3.92547C35.3073 3.15828 34.2668 2.72727 33.1818 2.72727H28.1818V11.8182H37.2727V6.81818ZM25.4545 2.72727H14.5455V11.8182H25.4545V2.72727ZM11.8182 2.72727H6.81818C5.73321 2.72727 4.69267 3.15828 3.92547 3.92547C3.15828 4.69267 2.72727 5.73321 2.72727 6.81818V11.8182H11.8182V2.72727Z"/>
</mask>
<path d="M0 6.81818C0 5.00989 0.718342 3.27566 1.997 1.997C3.27566 0.718342 5.00989 0 6.81818 0H33.1818C34.9901 0 36.7243 0.718342 38.003 1.997C39.2817 3.27566 40 5.00989 40 6.81818V33.1818C40 34.9901 39.2817 36.7243 38.003 38.003C36.7243 39.2817 34.9901 40 33.1818 40H6.81818C5.00989 40 3.27566 39.2817 1.997 38.003C0.718342 36.7243 0 34.9901 0 33.1818V6.81818ZM2.72727 28.1818V33.1818C2.72727 34.2668 3.15828 35.3073 3.92547 36.0745C4.69267 36.8417 5.73321 37.2727 6.81818 37.2727H11.8182V28.1818H2.72727ZM11.8182 25.4545V14.5455H2.72727V25.4545H11.8182ZM14.5455 28.1818V37.2727H25.4545V28.1818H14.5455ZM25.4545 25.4545V14.5455H14.5455V25.4545H25.4545ZM28.1818 28.1818V37.2727H33.1818C34.2668 37.2727 35.3073 36.8417 36.0745 36.0745C36.8417 35.3073 37.2727 34.2668 37.2727 33.1818V28.1818H28.1818ZM37.2727 25.4545V14.5455H28.1818V25.4545H37.2727ZM37.2727 6.81818C37.2727 5.73321 36.8417 4.69267 36.0745 3.92547C35.3073 3.15828 34.2668 2.72727 33.1818 2.72727H28.1818V11.8182H37.2727V6.81818ZM25.4545 2.72727H14.5455V11.8182H25.4545V2.72727ZM11.8182 2.72727H6.81818C5.73321 2.72727 4.69267 3.15828 3.92547 3.92547C3.15828 4.69267 2.72727 5.73321 2.72727 6.81818V11.8182H11.8182V2.72727Z" fill="url(#paint0_linear_21_21)"/>
<path d="M6.81818 0V-4V0ZM0 33.1818H-4H0ZM2.72727 28.1818V24.1818H-1.27273V28.1818H2.72727ZM2.72727 33.1818H-1.27273H2.72727ZM11.8182 37.2727V41.2727H15.8182V37.2727H11.8182ZM11.8182 28.1818H15.8182V24.1818H11.8182V28.1818ZM11.8182 25.4545V29.4545H15.8182V25.4545H11.8182ZM11.8182 14.5455H15.8182V10.5455H11.8182V14.5455ZM2.72727 14.5455V10.5455H-1.27273V14.5455H2.72727ZM2.72727 25.4545H-1.27273V29.4545H2.72727V25.4545ZM14.5455 28.1818V24.1818H10.5455V28.1818H14.5455ZM14.5455 37.2727H10.5455V41.2727H14.5455V37.2727ZM25.4545 37.2727V41.2727H29.4545V37.2727H25.4545ZM25.4545 28.1818H29.4545V24.1818H25.4545V28.1818ZM25.4545 25.4545V29.4545H29.4545V25.4545H25.4545ZM25.4545 14.5455H29.4545V10.5455H25.4545V14.5455ZM14.5455 14.5455V10.5455H10.5455V14.5455H14.5455ZM14.5455 25.4545H10.5455V29.4545H14.5455V25.4545ZM28.1818 28.1818V24.1818H24.1818V28.1818H28.1818ZM28.1818 37.2727H24.1818V41.2727H28.1818V37.2727ZM37.2727 28.1818H41.2727V24.1818H37.2727V28.1818ZM37.2727 25.4545V29.4545H41.2727V25.4545H37.2727ZM37.2727 14.5455H41.2727V10.5455H37.2727V14.5455ZM28.1818 14.5455V10.5455H24.1818V14.5455H28.1818ZM28.1818 25.4545H24.1818V29.4545H28.1818V25.4545ZM28.1818 2.72727V-1.27273H24.1818V2.72727H28.1818ZM28.1818 11.8182H24.1818V15.8182H28.1818V11.8182ZM37.2727 11.8182V15.8182H41.2727V11.8182H37.2727ZM25.4545 2.72727H29.4545V-1.27273H25.4545V2.72727ZM14.5455 2.72727V-1.27273H10.5455V2.72727H14.5455ZM14.5455 11.8182H10.5455V15.8182H14.5455V11.8182ZM25.4545 11.8182V15.8182H29.4545V11.8182H25.4545ZM11.8182 2.72727H15.8182V-1.27273H11.8182V2.72727ZM6.81818 2.72727V-1.27273V2.72727ZM2.72727 11.8182H-1.27273V15.8182H2.72727V11.8182ZM11.8182 11.8182V15.8182H15.8182V11.8182H11.8182ZM0 6.81818H4C4 6.07075 4.29691 5.35394 4.82543 4.82543L1.997 1.997L-0.831428 -0.831428C-2.86023 1.19737 -4 3.94902 -4 6.81818H0ZM1.997 1.997L4.82543 4.82543C5.35394 4.29691 6.07075 4 6.81818 4V0V-4C3.94902 -4 1.19737 -2.86023 -0.831428 -0.831428L1.997 1.997ZM6.81818 0V4H33.1818V0V-4H6.81818V0ZM33.1818 0V4C33.9292 4 34.6461 4.29692 35.1746 4.82543L38.003 1.997L40.8314 -0.831428C38.8026 -2.86023 36.051 -4 33.1818 -4V0ZM38.003 1.997L35.1746 4.82543C35.7031 5.35394 36 6.07075 36 6.81818H40H44C44 3.94902 42.8602 1.19738 40.8314 -0.831428L38.003 1.997ZM40 6.81818H36V33.1818H40H44V6.81818H40ZM40 33.1818H36C36 33.9293 35.7031 34.6461 35.1746 35.1746L38.003 38.003L40.8314 40.8314C42.8602 38.8026 44 36.051 44 33.1818H40ZM38.003 38.003L35.1746 35.1746C34.6461 35.7031 33.9293 36 33.1818 36V40V44C36.051 44 38.8026 42.8602 40.8314 40.8314L38.003 38.003ZM33.1818 40V36H6.81818V40V44H33.1818V40ZM6.81818 40V36C6.07075 36 5.35394 35.7031 4.82543 35.1746L1.997 38.003L-0.831428 40.8314C1.19738 42.8602 3.94902 44 6.81818 44V40ZM1.997 38.003L4.82543 35.1746C4.29692 34.6461 4 33.9292 4 33.1818H0H-4C-4 36.051 -2.86023 38.8026 -0.831428 40.8314L1.997 38.003ZM0 33.1818H4V6.81818H0H-4V33.1818H0ZM2.72727 28.1818H-1.27273V33.1818H2.72727H6.72727V28.1818H2.72727ZM2.72727 33.1818H-1.27273C-1.27273 35.3277 -0.420293 37.3856 1.09705 38.903L3.92547 36.0745L6.7539 33.2461C6.73685 33.2291 6.72727 33.2059 6.72727 33.1818H2.72727ZM3.92547 36.0745L1.09705 38.903C2.61438 40.4203 4.67234 41.2727 6.81818 41.2727V37.2727V33.2727C6.79407 33.2727 6.77095 33.2631 6.7539 33.2461L3.92547 36.0745ZM6.81818 37.2727V41.2727H11.8182V37.2727V33.2727H6.81818V37.2727ZM11.8182 37.2727H15.8182V28.1818H11.8182H7.81818V37.2727H11.8182ZM11.8182 28.1818V24.1818H2.72727V28.1818V32.1818H11.8182V28.1818ZM11.8182 25.4545H15.8182V14.5455H11.8182H7.81818V25.4545H11.8182ZM11.8182 14.5455V10.5455H2.72727V14.5455V18.5455H11.8182V14.5455ZM2.72727 14.5455H-1.27273V25.4545H2.72727H6.72727V14.5455H2.72727ZM2.72727 25.4545V29.4545H11.8182V25.4545V21.4545H2.72727V25.4545ZM14.5455 28.1818H10.5455V37.2727H14.5455H18.5455V28.1818H14.5455ZM14.5455 37.2727V41.2727H25.4545V37.2727V33.2727H14.5455V37.2727ZM25.4545 37.2727H29.4545V28.1818H25.4545H21.4545V37.2727H25.4545ZM25.4545 28.1818V24.1818H14.5455V28.1818V32.1818H25.4545V28.1818ZM25.4545 25.4545H29.4545V14.5455H25.4545H21.4545V25.4545H25.4545ZM25.4545 14.5455V10.5455H14.5455V14.5455V18.5455H25.4545V14.5455ZM14.5455 14.5455H10.5455V25.4545H14.5455H18.5455V14.5455H14.5455ZM14.5455 25.4545V29.4545H25.4545V25.4545V21.4545H14.5455V25.4545ZM28.1818 28.1818H24.1818V37.2727H28.1818H32.1818V28.1818H28.1818ZM28.1818 37.2727V41.2727H33.1818V37.2727V33.2727H28.1818V37.2727ZM33.1818 37.2727V41.2727C35.3277 41.2727 37.3856 40.4203 38.903 38.903L36.0745 36.0745L33.2461 33.2461C33.2291 33.2631 33.2059 33.2727 33.1818 33.2727V37.2727ZM36.0745 36.0745L38.903 38.903C40.4203 37.3856 41.2727 35.3277 41.2727 33.1818H37.2727H33.2727C33.2727 33.2059 33.2631 33.2291 33.2461 33.2461L36.0745 36.0745ZM37.2727 33.1818H41.2727V28.1818H37.2727H33.2727V33.1818H37.2727ZM37.2727 28.1818V24.1818H28.1818V28.1818V32.1818H37.2727V28.1818ZM37.2727 25.4545H41.2727V14.5455H37.2727H33.2727V25.4545H37.2727ZM37.2727 14.5455V10.5455H28.1818V14.5455V18.5455H37.2727V14.5455ZM28.1818 14.5455H24.1818V25.4545H28.1818H32.1818V14.5455H28.1818ZM28.1818 25.4545V29.4545H37.2727V25.4545V21.4545H28.1818V25.4545ZM37.2727 6.81818H41.2727C41.2727 4.67234 40.4203 2.61438 38.903 1.09705L36.0745 3.92547L33.2461 6.7539C33.2631 6.77095 33.2727 6.79407 33.2727 6.81818H37.2727ZM36.0745 3.92547L38.903 1.09705C37.3856 -0.420293 35.3277 -1.27273 33.1818 -1.27273V2.72727V6.72727C33.2059 6.72727 33.2291 6.73685 33.2461 6.7539L36.0745 3.92547ZM33.1818 2.72727V-1.27273H28.1818V2.72727V6.72727H33.1818V2.72727ZM28.1818 2.72727H24.1818V11.8182H28.1818H32.1818V2.72727H28.1818ZM28.1818 11.8182V15.8182H37.2727V11.8182V7.81818H28.1818V11.8182ZM37.2727 11.8182H41.2727V6.81818H37.2727H33.2727V11.8182H37.2727ZM25.4545 2.72727V-1.27273H14.5455V2.72727V6.72727H25.4545V2.72727ZM14.5455 2.72727H10.5455V11.8182H14.5455H18.5455V2.72727H14.5455ZM14.5455 11.8182V15.8182H25.4545V11.8182V7.81818H14.5455V11.8182ZM25.4545 11.8182H29.4545V2.72727H25.4545H21.4545V11.8182H25.4545ZM11.8182 2.72727V-1.27273H6.81818V2.72727V6.72727H11.8182V2.72727ZM6.81818 2.72727V-1.27273C4.67234 -1.27273 2.61438 -0.420293 1.09705 1.09705L3.92547 3.92547L6.7539 6.7539C6.77095 6.73685 6.79407 6.72727 6.81818 6.72727V2.72727ZM3.92547 3.92547L1.09705 1.09705C-0.420293 2.61438 -1.27273 4.67234 -1.27273 6.81818H2.72727H6.72727C6.72727 6.79407 6.73685 6.77095 6.7539 6.7539L3.92547 3.92547ZM2.72727 6.81818H-1.27273V11.8182H2.72727H6.72727V6.81818H2.72727ZM2.72727 11.8182V15.8182H11.8182V11.8182V7.81818H2.72727V11.8182ZM11.8182 11.8182H15.8182V2.72727H11.8182H7.81818V11.8182H11.8182Z" fill="url(#paint1_linear_21_21)" mask="url(#path-1-inside-1_21_21)"/>
<defs>
<linearGradient id="paint0_linear_21_21" x1="20" y1="0" x2="20" y2="40" gradientUnits="userSpaceOnUse">
<stop stop-color="#7A0068"/>
<stop offset="0.466346" stop-color="#7A0068"/>
<stop offset="1" stop-color="#E000BF"/>
</linearGradient>
<linearGradient id="paint1_linear_21_21" x1="20" y1="0" x2="20" y2="40" gradientUnits="userSpaceOnUse">
<stop stop-color="#7A0068"/>
<stop offset="0.466346" stop-color="#7A0068"/>
<stop offset="1" stop-color="#E000BF"/>
</linearGradient>
</defs>
</svg>
