<svg width="40" height="40" viewBox="0 0 40 40" fill="none" xmlns="http://www.w3.org/2000/svg">
<path d="M20.0033 3.31166C22.2886 1.09958 25.2698 -0.0818905 28.3349 0.00985399C31.4 0.101598 34.3164 1.45959 36.4851 3.80499C38.6515 6.14873 39.9073 9.30033 39.9951 12.6138C40.0828 15.9272 38.9959 19.1514 36.9571 21.6255L19.9993 40L3.04555 21.6255C1.00433 19.1501 -0.0836327 15.9231 0.0050219 12.607C0.0936765 9.29095 1.35222 6.1374 3.52227 3.7938C5.69233 1.45021 8.60923 0.0944098 11.6741 0.00474734C14.739 -0.0849151 17.7194 1.09837 20.0033 3.31166ZM33.6535 6.86235C32.2084 5.30136 30.2662 4.39748 28.225 4.33593C26.1838 4.27438 24.1982 5.05982 22.675 6.5313L20.0053 9.12346L17.3337 6.53347C15.8172 5.06622 13.841 4.27927 11.8073 4.33277C9.7736 4.38627 7.83512 5.27619 6.38635 6.82145C4.93758 8.3667 4.08739 10.4512 4.00877 12.6507C3.93015 14.8502 4.62902 16.9995 5.96316 18.6612L20.0013 33.8745L34.0395 18.6634C35.368 17.009 36.067 14.8709 35.9953 12.6806C35.9237 10.4903 35.0868 8.41099 33.6535 6.86235Z" fill="url(#paint0_linear_21_18)"/>
<defs>
<linearGradient id="paint0_linear_21_18" x1="20" y1="0" x2="20" y2="40" gradientUnits="userSpaceOnUse">
<stop stop-color="#7A0068"/>
<stop offset="0.370192" stop-color="#7A0068"/>
<stop offset="1" stop-color="#E000BF"/>
</linearGradient>
</defs>
</svg>
