<svg width="163" height="79" viewBox="0 0 163 79" fill="none" xmlns="http://www.w3.org/2000/svg">
<path d="M5.44 15.2C5.81333 15.2 6.24 15.3067 6.72 15.52C7.22667 15.7333 7.61333 15.9067 7.88 16.04C8.09333 16.0133 8.32 16 8.56 16C8.82667 15.9733 9.09333 15.96 9.36 15.96C9.68 15.96 10.0933 16.04 10.6 16.2C11.1067 16.36 11.7867 16.7733 12.64 17.44C13.0933 17.7867 13.48 18.1467 13.8 18.52C14.12 18.8933 14.3867 19.32 14.6 19.8C14.8133 20.28 14.96 20.8267 15.04 21.44C15.1467 22.0533 15.2 22.76 15.2 23.56C15.2 24.7067 15.0667 25.9333 14.8 27.24C14.5333 28.5467 14.1733 29.8533 13.72 31.16C13.2933 32.44 12.7867 33.68 12.2 34.88C11.64 36.08 11.0667 37.1333 10.48 38.04C9.89333 38.9467 9.32 39.6667 8.76 40.2C8.2 40.76 7.69333 41.04 7.24 41.04C6.84 41.04 6.41333 40.8533 5.96 40.48C5.50667 40.1333 5.13333 39.6933 4.84 39.16C4.62667 38.76 4.45333 38.3733 4.32 38C4.21333 37.6267 4.13333 37.1733 4.08 36.64C4.02667 36.1067 3.98667 35.4533 3.96 34.68C3.96 33.9067 3.96 32.92 3.96 31.72C3.96 28.76 4 26.28 4.08 24.28C4.18667 22.28 4.26667 20.64 4.32 19.36C3.68 19.68 3.21333 19.9733 2.92 20.24C2.65333 20.5067 2.46667 20.7467 2.36 20.96C2.28 21.1733 2.22667 21.3467 2.2 21.48C2.2 21.5867 2.14667 21.64 2.04 21.64C1.88 21.64 1.70667 21.56 1.52 21.4C1.30667 21.24 1.12 21.04 0.96 20.8C0.773333 20.56 0.613333 20.3067 0.48 20.04C0.346667 19.7733 0.28 19.52 0.28 19.28C0.28 18.8267 0.68 18.36 1.48 17.88C2.28 17.4 3.29333 16.9867 4.52 16.64C4.54667 16.5067 4.56 16.4 4.56 16.32C4.56 16.2133 4.56 16.12 4.56 16.04C4.56 15.72 4.61333 15.5067 4.72 15.4C4.82667 15.2667 5.06667 15.2 5.44 15.2ZM12.32 22.68C12.32 21.9867 12.28 21.3733 12.2 20.84C12.1467 20.28 12.0133 19.8133 11.8 19.44C11.5867 19.0667 11.2933 18.7867 10.92 18.6C10.5467 18.3867 10.0533 18.28 9.44 18.28C9.06667 18.28 8.72 18.2933 8.4 18.32C8.08 18.3467 7.76 18.3867 7.44 18.44C7.14667 19.8267 6.92 21.7333 6.76 24.16C6.6 26.5867 6.52 29.6133 6.52 33.24C6.52 34.2 6.52 35 6.52 35.64C6.54667 36.28 6.57333 36.7867 6.6 37.16C6.65333 37.5333 6.72 37.8 6.8 37.96C6.90667 38.0933 7.04 38.16 7.2 38.16C7.38667 38.16 7.64 37.9467 7.96 37.52C8.28 37.0667 8.62667 36.4667 9 35.72C9.4 34.9467 9.78667 34.0533 10.16 33.04C10.56 32 10.92 30.9067 11.24 29.76C11.56 28.6133 11.8133 27.44 12 26.24C12.2133 25.0133 12.32 23.8267 12.32 22.68ZM20.4831 32.28C19.6831 32.28 18.9098 32.0133 18.1631 31.48C18.1098 31.8 18.0831 32.12 18.0831 32.44C18.0831 32.76 18.0831 33.08 18.0831 33.4C18.0831 34.0933 18.1098 34.7467 18.1631 35.36C18.2431 35.9467 18.3631 36.48 18.5231 36.96C18.6831 37.4133 18.8965 37.7733 19.1631 38.04C19.4298 38.3067 19.7631 38.44 20.1631 38.44C20.8031 38.44 21.2831 38.1333 21.6031 37.52C21.9498 36.9067 22.2165 36.24 22.4031 35.52C22.5898 34.7733 22.7231 34.0933 22.8031 33.48C22.9098 32.8667 23.0298 32.56 23.1631 32.56C23.2698 32.56 23.4831 32.76 23.8031 33.16C24.1231 33.5333 24.2831 34.16 24.2831 35.04C24.2831 35.6267 24.1898 36.24 24.0031 36.88C23.8431 37.4933 23.6031 38.0533 23.2831 38.56C22.9631 39.0667 22.5631 39.4933 22.0831 39.84C21.6298 40.16 21.0965 40.32 20.4831 40.32C19.8698 40.32 19.2565 40.1867 18.6431 39.92C18.0565 39.6267 17.5231 39.16 17.0431 38.52C16.5898 37.8533 16.2165 36.9867 15.9231 35.92C15.6565 34.8533 15.5231 33.52 15.5231 31.92C15.5231 30.5333 15.6165 29.2267 15.8031 28C15.9898 26.7467 16.2431 25.6533 16.5631 24.72C16.8831 23.76 17.2431 23.0133 17.6431 22.48C18.0698 21.92 18.5098 21.64 18.9631 21.64C19.2831 21.64 19.7098 21.76 20.2431 22C20.8031 22.2133 21.4165 22.52 22.0831 22.92C22.3231 23.08 22.5365 23.24 22.7231 23.4C22.9098 23.5333 23.0565 23.72 23.1631 23.96C23.2965 24.1733 23.3898 24.4667 23.4431 24.84C23.4965 25.1867 23.5231 25.64 23.5231 26.2C23.5231 26.8667 23.4698 27.56 23.3631 28.28C23.2565 29 23.0831 29.6533 22.8431 30.24C22.6031 30.8267 22.2831 31.32 21.8831 31.72C21.5098 32.0933 21.0431 32.28 20.4831 32.28ZM20.3231 24.32C20.1098 24.32 19.8965 24.4667 19.6831 24.76C19.4965 25.0533 19.3098 25.4533 19.1231 25.96C18.9631 26.4667 18.8031 27.0533 18.6431 27.72C18.5098 28.3867 18.3898 29.08 18.2831 29.8C18.3898 30.0933 18.5365 30.32 18.7231 30.48C18.9365 30.6133 19.1365 30.68 19.3231 30.68C19.7231 30.68 20.0965 30.3333 20.4431 29.64C20.7898 28.9467 20.9631 27.76 20.9631 26.08C20.9631 25.4133 20.9098 24.96 20.8031 24.72C20.7231 24.4533 20.5631 24.32 20.3231 24.32ZM25.3884 21.68C25.9218 21.68 26.4284 21.7733 26.9084 21.96C27.4151 22.12 27.6684 22.3733 27.6684 22.72C27.6684 22.8 27.6418 22.8933 27.5884 23C27.5351 23.08 27.4818 23.24 27.4284 23.48C27.3751 23.72 27.3218 24.08 27.2684 24.56C27.2151 25.0133 27.1884 25.64 27.1884 26.44C27.1884 27.64 27.2151 28.7733 27.2684 29.84C27.3218 30.9067 27.3884 31.84 27.4684 32.64C27.5751 33.4133 27.6951 34.0267 27.8284 34.48C27.9884 34.9333 28.1751 35.16 28.3884 35.16C28.5751 35.16 28.7618 34.8667 28.9484 34.28C29.1618 33.6933 29.3484 33.0133 29.5084 32.24C29.6951 31.4667 29.8418 30.7067 29.9484 29.96C30.0551 29.2133 30.1218 28.68 30.1484 28.36C30.0951 27.9067 30.0684 27.52 30.0684 27.2C30.0684 26.8533 30.0684 26.4667 30.0684 26.04C30.0684 25.1333 30.0951 24.2667 30.1484 23.44C30.2018 22.5867 30.2951 21.8267 30.4284 21.16C30.5618 20.4933 30.7351 19.96 30.9484 19.56C31.1618 19.16 31.4284 18.96 31.7484 18.96C31.9351 18.96 32.1351 19.0133 32.3484 19.12C32.5884 19.2 32.8018 19.32 32.9884 19.48C33.2018 19.64 33.3751 19.84 33.5084 20.08C33.6684 20.32 33.7484 20.5867 33.7484 20.88C33.7484 21.1467 33.6951 21.6133 33.5884 22.28C33.4818 22.9467 33.3484 23.6667 33.1884 24.44C33.0551 25.2133 32.9084 25.9733 32.7484 26.72C32.5884 27.44 32.4551 28 32.3484 28.4C32.4018 28.8 32.5351 29.0667 32.7484 29.2C32.9884 29.3333 33.2018 29.4 33.3884 29.4C33.5218 29.4 33.6151 29.3867 33.6684 29.36C33.7484 29.3333 33.8151 29.32 33.8684 29.32C33.9751 29.32 34.0284 29.4133 34.0284 29.6C34.0284 29.9733 33.6818 30.16 32.9884 30.16C32.6418 30.16 32.3351 30.1333 32.0684 30.08C31.8018 30.0267 31.6151 29.9733 31.5084 29.92C31.3484 30.96 31.1351 32.0667 30.8684 33.24C30.6284 34.3867 30.3484 35.4533 30.0284 36.44C29.7351 37.4 29.4151 38.2 29.0684 38.84C28.7484 39.4533 28.4418 39.76 28.1484 39.76C28.0151 39.76 27.8684 39.68 27.7084 39.52C27.5484 39.36 27.2951 39.1067 26.9484 38.76C26.7351 38.5467 26.5484 38.3467 26.3884 38.16C26.2551 37.9733 26.1351 37.7067 26.0284 37.36C25.9484 36.9867 25.8551 36.5067 25.7484 35.92C25.6418 35.3067 25.5218 34.4667 25.3884 33.4C25.0151 30.3333 24.7351 27.9467 24.5484 26.24C24.3884 24.5333 24.3084 23.32 24.3084 22.6C24.3084 22.3867 24.3751 22.1867 24.5084 22C24.6684 21.7867 24.9618 21.68 25.3884 21.68ZM42.8063 31.52C42.8063 31.36 42.9129 31.2133 43.1263 31.08C43.3663 30.9467 43.6596 30.88 44.0063 30.88C44.7263 30.88 45.2063 31.1333 45.4463 31.64C45.6863 32.1467 45.8063 32.72 45.8063 33.36C45.8063 34.1333 45.7263 34.9867 45.5663 35.92C45.4329 36.8267 45.1796 37.68 44.8063 38.48C44.4596 39.2533 43.9929 39.8933 43.4062 40.4C42.8196 40.9333 42.0863 41.2 41.2063 41.2C38.7796 41.2 37.0063 40.2933 35.8863 38.48C34.7929 36.64 34.2463 34 34.2463 30.56C34.2463 29.6 34.2729 28.52 34.3263 27.32C34.4063 26.12 34.5263 24.9067 34.6863 23.68C34.8463 22.4533 35.0596 21.2667 35.3263 20.12C35.5929 18.9467 35.9263 17.9067 36.3263 17C36.7263 16.0933 37.1929 15.3733 37.7263 14.84C38.2596 14.28 38.8863 14 39.6063 14C40.6996 14 41.5796 14.2267 42.2463 14.68C42.9396 15.1333 43.4596 15.6933 43.8063 16.36C44.1796 17.0267 44.4196 17.76 44.5263 18.56C44.6596 19.3333 44.7263 20.0533 44.7263 20.72C44.7263 21.36 44.6996 21.9733 44.6463 22.56C44.6196 23.1467 44.5396 23.6533 44.4063 24.08C44.2729 24.5067 44.0863 24.8533 43.8463 25.12C43.6063 25.36 43.2863 25.48 42.8863 25.48C42.4596 25.48 42.0063 25.3867 41.5263 25.2C41.0463 25.0133 40.8063 24.7333 40.8063 24.36C40.8063 24.2533 40.8463 24.12 40.9263 23.96C41.0063 23.7733 41.0863 23.5467 41.1663 23.28C41.2729 22.9867 41.3663 22.6133 41.4463 22.16C41.5263 21.7067 41.5663 21.1333 41.5663 20.44C41.5663 19.0533 41.4729 18.12 41.2863 17.64C41.0996 17.1333 40.8596 16.88 40.5663 16.88C40.2196 16.88 39.8863 17.12 39.5663 17.6C39.2729 18.08 38.9929 18.72 38.7263 19.52C38.4596 20.2933 38.2196 21.1867 38.0063 22.2C37.7929 23.1867 37.6063 24.2267 37.4463 25.32C37.2863 26.3867 37.1663 27.44 37.0863 28.48C37.0063 29.52 36.9663 30.4667 36.9663 31.32C36.9663 32.4133 37.0196 33.4533 37.1263 34.44C37.2329 35.4 37.4063 36.2533 37.6463 37C37.9129 37.72 38.2463 38.2933 38.6463 38.72C39.0463 39.1467 39.5263 39.36 40.0863 39.36C40.4063 39.36 40.7263 39.2667 41.0463 39.08C41.3929 38.8933 41.6996 38.56 41.9663 38.08C42.2596 37.6 42.4863 36.9467 42.6463 36.12C42.8329 35.2933 42.9263 34.24 42.9263 32.96C42.9263 32.56 42.8996 32.2533 42.8463 32.04C42.8196 31.8 42.8063 31.6267 42.8063 31.52ZM53.6484 20.84C53.6484 21 53.6084 21.1467 53.5284 21.28C53.4751 21.3867 53.3818 21.44 53.2484 21.44C53.1418 21.44 53.0351 21.4267 52.9284 21.4C52.8484 21.3467 52.7018 21.32 52.4884 21.32C52.1951 21.32 51.8751 21.5467 51.5284 22C51.2084 22.4533 50.9018 23.1467 50.6084 24.08C50.3418 24.9867 50.1151 26.1333 49.9284 27.52C49.7418 28.9067 49.6484 30.52 49.6484 32.36C49.6484 32.9733 49.6618 33.6133 49.6884 34.28C49.7151 34.92 49.7684 35.5067 49.8484 36.04C49.9551 36.5733 50.0884 37.0133 50.2484 37.36C50.4351 37.68 50.6751 37.84 50.9684 37.84C51.2618 37.84 51.5151 37.6533 51.7284 37.28C51.9418 36.88 52.1151 36.3867 52.2484 35.8C52.4084 35.2133 52.5151 34.56 52.5684 33.84C52.6484 33.12 52.6884 32.4267 52.6884 31.76C52.6884 31.3867 52.6751 31.04 52.6484 30.72C52.6484 30.4 52.6351 30.0933 52.6084 29.8C52.3418 29.0267 52.1284 28.1733 51.9684 27.24C51.8084 26.3067 51.7284 25.3467 51.7284 24.36C51.7284 23.5067 51.7818 22.9333 51.8884 22.64C52.0218 22.32 52.3151 22.16 52.7684 22.16C53.0351 22.16 53.3818 22.2267 53.8084 22.36C54.2351 22.4933 54.5418 22.7067 54.7284 23C54.9151 23.2933 55.0218 23.7333 55.0484 24.32C55.0751 24.88 55.0884 25.4533 55.0884 26.04C55.0884 26.6533 55.0484 27.3333 54.9684 28.08C54.9151 28.8267 54.8618 29.5067 54.8084 30.12C55.1018 30.36 55.5151 30.48 56.0484 30.48C56.2618 30.48 56.4618 30.4667 56.6484 30.44C56.8351 30.4133 56.9818 30.4 57.0884 30.4C57.3284 30.4 57.4484 30.48 57.4484 30.64C57.4484 30.8533 57.2351 31.04 56.8084 31.2C56.3818 31.3333 55.9418 31.4 55.4884 31.4C55.1151 31.4 54.8484 31.3733 54.6884 31.32C54.6084 32.6533 54.4751 33.88 54.2884 35C54.1284 36.0933 53.9018 37.04 53.6084 37.84C53.3418 38.64 53.0218 39.2667 52.6484 39.72C52.2751 40.1733 51.8484 40.4 51.3684 40.4C50.9951 40.4 50.6484 40.3067 50.3284 40.12C50.0084 39.96 49.6484 39.72 49.2484 39.4C48.7151 38.9733 48.3018 38.4133 48.0084 37.72C47.7151 37.0267 47.5018 36.28 47.3684 35.48C47.2351 34.68 47.1551 33.88 47.1284 33.08C47.1018 32.2533 47.0884 31.5333 47.0884 30.92C47.0884 29.6933 47.1684 28.3867 47.3284 27C47.5151 25.5867 47.7684 24.2933 48.0884 23.12C48.4084 21.92 48.7951 20.9333 49.2484 20.16C49.7284 19.36 50.2618 18.96 50.8484 18.96C51.0084 18.96 51.2484 19.04 51.5684 19.2C51.8884 19.3333 52.1951 19.5067 52.4884 19.72C52.8084 19.9067 53.0751 20.1067 53.2884 20.32C53.5284 20.5333 53.6484 20.7067 53.6484 20.84ZM54.8794 23.32C54.8794 23.1333 55.026 23.0267 55.3194 23C55.6127 22.9733 55.8927 22.96 56.1594 22.96C56.3727 22.96 56.666 22.9867 57.0394 23.04C57.4394 23.0933 57.826 23.1733 58.1994 23.28C58.5994 23.3867 58.9327 23.5467 59.1994 23.76C59.4927 23.9467 59.6394 24.1733 59.6394 24.44C59.6394 25.0267 59.626 25.7333 59.5994 26.56C59.5994 27.36 59.586 28.16 59.5594 28.96C59.5327 29.76 59.506 30.48 59.4794 31.12C59.4794 31.76 59.4794 32.2133 59.4794 32.48C60.2794 29.6267 60.906 27.4133 61.3594 25.84C61.8127 24.2667 62.186 23.12 62.4794 22.4C62.7727 21.6533 62.9994 21.2133 63.1594 21.08C63.346 20.92 63.5594 20.84 63.7994 20.84C63.9594 20.84 64.186 20.88 64.4794 20.96C64.7994 21.04 65.106 21.1467 65.3994 21.28C65.6927 21.4133 65.946 21.5733 66.1594 21.76C66.3994 21.92 66.5194 22.0933 66.5194 22.28C66.5194 22.44 66.426 22.8667 66.2394 23.56C66.0794 24.2533 65.8927 25.0933 65.6794 26.08C65.4927 27.04 65.3194 28.08 65.1594 29.2C64.9994 30.32 64.9194 31.4 64.9194 32.44C64.9194 32.9467 64.9194 33.4267 64.9194 33.88C64.946 34.3333 64.9727 34.7467 64.9994 35.12C65.0527 35.4667 65.1327 35.7467 65.2394 35.96C65.346 36.1733 65.506 36.28 65.7194 36.28C65.9327 36.28 66.106 36.16 66.2394 35.92C66.3727 35.68 66.4794 35.4267 66.5594 35.16C66.666 34.8667 66.7594 34.6 66.8394 34.36C66.946 34.12 67.066 34 67.1994 34C67.386 34 67.506 34.12 67.5594 34.36C67.6127 34.5733 67.6394 34.7867 67.6394 35C67.6394 35.32 67.586 35.68 67.4794 36.08C67.3994 36.48 67.266 36.8533 67.0794 37.2C66.8927 37.5467 66.6794 37.84 66.4394 38.08C66.1994 38.32 65.9194 38.44 65.5994 38.44C65.2527 38.44 64.906 38.2533 64.5594 37.88C64.2127 37.48 63.8927 37.04 63.5994 36.56C63.4127 36.24 63.2127 35.8133 62.9994 35.28C62.8127 34.72 62.7194 33.8533 62.7194 32.68C62.7194 31.5867 62.7727 30.44 62.8794 29.24C62.986 28.0133 63.0794 27.0133 63.1594 26.24C62.9994 26.5067 62.786 26.9467 62.5194 27.56C62.2794 28.1733 62.026 28.8933 61.7594 29.72C61.4927 30.52 61.2127 31.3867 60.9194 32.32C60.6527 33.2267 60.4127 34.1333 60.1994 35.04C59.986 35.92 59.8127 36.76 59.6794 37.56C59.546 38.36 59.4794 39.0267 59.4794 39.56C59.4794 39.72 59.4394 39.84 59.3594 39.92C59.306 40 59.1727 40.04 58.9594 40.04C58.506 40.04 58.0527 39.92 57.5994 39.68C57.1727 39.4133 56.906 39.1333 56.7994 38.84C56.7727 38.7867 56.7594 38.6533 56.7594 38.44C56.7594 38.2 56.7594 37.96 56.7594 37.72C56.7594 37.0533 56.8127 36.0933 56.9194 34.84C57.026 33.56 57.0794 32.2 57.0794 30.76C57.0794 30.3333 57.0794 29.8267 57.0794 29.24C57.0794 28.6267 57.0527 28.0267 56.9994 27.44C56.9727 26.8533 56.9194 26.3067 56.8394 25.8C56.786 25.2933 56.706 24.9067 56.5994 24.64C56.4927 24.3733 56.3327 24.1733 56.1194 24.04C55.9327 23.88 55.746 23.76 55.5594 23.68C55.3727 23.6 55.2127 23.5467 55.0794 23.52C54.946 23.4667 54.8794 23.4 54.8794 23.32Z" fill="black"/>
</svg>
