<svg width="167" height="79" viewBox="0 0 167 79" fill="none" xmlns="http://www.w3.org/2000/svg">
<path d="M8.504 23.32C9.10133 23.32 9.784 23.4907 10.552 23.832C11.3627 24.1733 11.9813 24.4507 12.408 24.664C12.7493 24.6213 13.112 24.6 13.496 24.6C13.9227 24.5573 14.3493 24.536 14.776 24.536C15.288 24.536 15.9493 24.664 16.76 24.92C17.5707 25.176 18.6587 25.8373 20.024 26.904C20.7493 27.4587 21.368 28.0347 21.88 28.632C22.392 29.2293 22.8187 29.912 23.16 30.68C23.5013 31.448 23.736 32.3227 23.864 33.304C24.0347 34.2853 24.12 35.416 24.12 36.696C24.12 38.5307 23.9067 40.4933 23.48 42.584C23.0533 44.6747 22.4773 46.7653 21.752 48.856C21.0693 50.904 20.2587 52.888 19.32 54.808C18.424 56.728 17.5067 58.4133 16.568 59.864C15.6293 61.3147 14.712 62.4667 13.816 63.32C12.92 64.216 12.1093 64.664 11.384 64.664C10.744 64.664 10.0613 64.3653 9.336 63.768C8.61067 63.2133 8.01333 62.5093 7.544 61.656C7.20267 61.016 6.92533 60.3973 6.712 59.8C6.54133 59.2027 6.41333 58.4773 6.328 57.624C6.24267 56.7707 6.17867 55.7253 6.136 54.488C6.136 53.2507 6.136 51.672 6.136 49.752C6.136 45.016 6.2 41.048 6.328 37.848C6.49867 34.648 6.62667 32.024 6.712 29.976C5.688 30.488 4.94133 30.9573 4.472 31.384C4.04533 31.8107 3.74667 32.1947 3.576 32.536C3.448 32.8773 3.36267 33.1547 3.32 33.368C3.32 33.5387 3.23467 33.624 3.064 33.624C2.808 33.624 2.53067 33.496 2.232 33.24C1.89067 32.984 1.592 32.664 1.336 32.28C1.03733 31.896 0.781333 31.4907 0.568 31.064C0.354667 30.6373 0.248 30.232 0.248 29.848C0.248 29.1227 0.888 28.376 2.168 27.608C3.448 26.84 5.06933 26.1787 7.032 25.624C7.07467 25.4107 7.096 25.24 7.096 25.112C7.096 24.9413 7.096 24.792 7.096 24.664C7.096 24.152 7.18133 23.8107 7.352 23.64C7.52267 23.4267 7.90667 23.32 8.504 23.32ZM19.512 35.288C19.512 34.1787 19.448 33.1973 19.32 32.344C19.2347 31.448 19.0213 30.7013 18.68 30.104C18.3387 29.5067 17.8693 29.0587 17.272 28.76C16.6747 28.4187 15.8853 28.248 14.904 28.248C14.3067 28.248 13.752 28.2693 13.24 28.312C12.728 28.3547 12.216 28.4187 11.704 28.504C11.2347 30.7227 10.872 33.7733 10.616 37.656C10.36 41.5387 10.232 46.3813 10.232 52.184C10.232 53.72 10.232 55 10.232 56.024C10.2747 57.048 10.3173 57.8587 10.36 58.456C10.4453 59.0533 10.552 59.48 10.68 59.736C10.8507 59.9493 11.064 60.056 11.32 60.056C11.6187 60.056 12.024 59.7147 12.536 59.032C13.048 58.3067 13.6027 57.3467 14.2 56.152C14.84 54.9147 15.4587 53.4853 16.056 51.864C16.696 50.2 17.272 48.4507 17.784 46.616C18.296 44.7813 18.7013 42.904 19 40.984C19.3413 39.0213 19.512 37.1227 19.512 35.288ZM32.573 50.648C31.293 50.648 30.0557 50.2213 28.861 49.368C28.7757 49.88 28.733 50.392 28.733 50.904C28.733 51.416 28.733 51.928 28.733 52.44C28.733 53.5493 28.7757 54.5947 28.861 55.576C28.989 56.5147 29.181 57.368 29.437 58.136C29.693 58.8613 30.0343 59.4373 30.461 59.864C30.8877 60.2907 31.421 60.504 32.061 60.504C33.085 60.504 33.853 60.0133 34.365 59.032C34.9197 58.0507 35.3463 56.984 35.645 55.832C35.9437 54.6373 36.157 53.5493 36.285 52.568C36.4557 51.5867 36.6477 51.096 36.861 51.096C37.0317 51.096 37.373 51.416 37.885 52.056C38.397 52.6533 38.653 53.656 38.653 55.064C38.653 56.0027 38.5037 56.984 38.205 58.008C37.949 58.9893 37.565 59.8853 37.053 60.696C36.541 61.5067 35.901 62.1893 35.133 62.744C34.4077 63.256 33.5543 63.512 32.573 63.512C31.5917 63.512 30.6103 63.2987 29.629 62.872C28.6903 62.4027 27.837 61.656 27.069 60.632C26.3437 59.5653 25.7463 58.1787 25.277 56.472C24.8503 54.7653 24.637 52.632 24.637 50.072C24.637 47.8533 24.7863 45.7627 25.085 43.8C25.3837 41.7947 25.789 40.0453 26.301 38.552C26.813 37.016 27.389 35.8213 28.029 34.968C28.7117 34.072 29.4157 33.624 30.141 33.624C30.653 33.624 31.3357 33.816 32.189 34.2C33.085 34.5413 34.0663 35.032 35.133 35.672C35.517 35.928 35.8583 36.184 36.157 36.44C36.4557 36.6533 36.6903 36.952 36.861 37.336C37.0743 37.6773 37.2237 38.1467 37.309 38.744C37.3943 39.2987 37.437 40.024 37.437 40.92C37.437 41.9867 37.3517 43.096 37.181 44.248C37.0103 45.4 36.733 46.4453 36.349 47.384C35.965 48.3227 35.453 49.112 34.813 49.752C34.2157 50.3493 33.469 50.648 32.573 50.648ZM32.317 37.912C31.9757 37.912 31.6343 38.1467 31.293 38.616C30.9943 39.0853 30.6957 39.7253 30.397 40.536C30.141 41.3467 29.885 42.2853 29.629 43.352C29.4157 44.4187 29.2237 45.528 29.053 46.68C29.2237 47.1493 29.4583 47.512 29.757 47.768C30.0983 47.9813 30.4183 48.088 30.717 48.088C31.357 48.088 31.9543 47.5333 32.509 46.424C33.0637 45.3147 33.341 43.416 33.341 40.728C33.341 39.6613 33.2557 38.936 33.085 38.552C32.957 38.1253 32.701 37.912 32.317 37.912ZM40.4215 33.688C41.2748 33.688 42.0855 33.8373 42.8535 34.136C43.6642 34.392 44.0695 34.7973 44.0695 35.352C44.0695 35.48 44.0268 35.6293 43.9415 35.8C43.8562 35.928 43.7708 36.184 43.6855 36.568C43.6002 36.952 43.5148 37.528 43.4295 38.296C43.3442 39.0213 43.3015 40.024 43.3015 41.304C43.3015 43.224 43.3442 45.0373 43.4295 46.744C43.5148 48.4507 43.6215 49.944 43.7495 51.224C43.9202 52.4613 44.1122 53.4427 44.3255 54.168C44.5815 54.8933 44.8802 55.256 45.2215 55.256C45.5202 55.256 45.8188 54.7867 46.1175 53.848C46.4588 52.9093 46.7575 51.8213 47.0135 50.584C47.3122 49.3467 47.5468 48.1307 47.7175 46.936C47.8882 45.7413 47.9948 44.888 48.0375 44.376C47.9522 43.6507 47.9095 43.032 47.9095 42.52C47.9095 41.9653 47.9095 41.3467 47.9095 40.664C47.9095 39.2133 47.9522 37.8267 48.0375 36.504C48.1228 35.1387 48.2722 33.9227 48.4855 32.856C48.6988 31.7893 48.9762 30.936 49.3175 30.296C49.6588 29.656 50.0855 29.336 50.5975 29.336C50.8962 29.336 51.2162 29.4213 51.5575 29.592C51.9415 29.72 52.2828 29.912 52.5815 30.168C52.9228 30.424 53.2002 30.744 53.4135 31.128C53.6695 31.512 53.7975 31.9387 53.7975 32.408C53.7975 32.8347 53.7122 33.5813 53.5415 34.648C53.3708 35.7147 53.1575 36.8667 52.9015 38.104C52.6882 39.3413 52.4535 40.5573 52.1975 41.752C51.9415 42.904 51.7282 43.8 51.5575 44.44C51.6428 45.08 51.8562 45.5067 52.1975 45.72C52.5815 45.9333 52.9228 46.04 53.2215 46.04C53.4348 46.04 53.5842 46.0187 53.6695 45.976C53.7975 45.9333 53.9042 45.912 53.9895 45.912C54.1602 45.912 54.2455 46.0613 54.2455 46.36C54.2455 46.9573 53.6908 47.256 52.5815 47.256C52.0268 47.256 51.5362 47.2133 51.1095 47.128C50.6828 47.0427 50.3842 46.9573 50.2135 46.872C49.9575 48.536 49.6162 50.3067 49.1895 52.184C48.8055 54.0187 48.3575 55.7253 47.8455 57.304C47.3762 58.84 46.8642 60.12 46.3095 61.144C45.7975 62.1253 45.3068 62.616 44.8375 62.616C44.6242 62.616 44.3895 62.488 44.1335 62.232C43.8775 61.976 43.4722 61.5707 42.9175 61.016C42.5762 60.6747 42.2775 60.3547 42.0215 60.056C41.8082 59.7573 41.6162 59.3307 41.4455 58.776C41.3175 58.1787 41.1682 57.4107 40.9975 56.472C40.8268 55.4907 40.6348 54.1467 40.4215 52.44C39.8242 47.5333 39.3762 43.7147 39.0775 40.984C38.8215 38.2533 38.6935 36.312 38.6935 35.16C38.6935 34.8187 38.8002 34.4987 39.0135 34.2C39.2695 33.8587 39.7388 33.688 40.4215 33.688ZM68.29 49.432C68.29 49.176 68.4607 48.9413 68.802 48.728C69.186 48.5147 69.6553 48.408 70.21 48.408C71.362 48.408 72.13 48.8133 72.514 49.624C72.898 50.4347 73.09 51.352 73.09 52.376C73.09 53.6133 72.962 54.9787 72.706 56.472C72.4927 57.9227 72.0873 59.288 71.49 60.568C70.9353 61.8053 70.1887 62.8293 69.25 63.64C68.3113 64.4933 67.138 64.92 65.73 64.92C61.8473 64.92 59.01 63.4693 57.218 60.568C55.4687 57.624 54.594 53.4 54.594 47.896C54.594 46.36 54.6367 44.632 54.722 42.712C54.85 40.792 55.042 38.8507 55.298 36.888C55.554 34.9253 55.8953 33.0267 56.322 31.192C56.7487 29.3147 57.282 27.6507 57.922 26.2C58.562 24.7493 59.3087 23.5973 60.162 22.744C61.0153 21.848 62.018 21.4 63.17 21.4C64.9193 21.4 66.3273 21.7627 67.394 22.488C68.5033 23.2133 69.3353 24.1093 69.89 25.176C70.4873 26.2427 70.8713 27.416 71.042 28.696C71.2553 29.9333 71.362 31.0853 71.362 32.152C71.362 33.176 71.3193 34.1573 71.234 35.096C71.1913 36.0347 71.0633 36.8453 70.85 37.528C70.6367 38.2107 70.338 38.7653 69.954 39.192C69.57 39.576 69.058 39.768 68.418 39.768C67.7353 39.768 67.01 39.6187 66.242 39.32C65.474 39.0213 65.09 38.5733 65.09 37.976C65.09 37.8053 65.154 37.592 65.282 37.336C65.41 37.0373 65.538 36.6747 65.666 36.248C65.8367 35.7787 65.986 35.1813 66.114 34.456C66.242 33.7307 66.306 32.8133 66.306 31.704C66.306 29.4853 66.1567 27.992 65.858 27.224C65.5593 26.4133 65.1753 26.008 64.706 26.008C64.1513 26.008 63.618 26.392 63.106 27.16C62.6367 27.928 62.1887 28.952 61.762 30.232C61.3353 31.4693 60.9513 32.8987 60.61 34.52C60.2687 36.0987 59.97 37.7627 59.714 39.512C59.458 41.2187 59.266 42.904 59.138 44.568C59.01 46.232 58.946 47.7467 58.946 49.112C58.946 50.8613 59.0313 52.5253 59.202 54.104C59.3727 55.64 59.65 57.0053 60.034 58.2C60.4607 59.352 60.994 60.2693 61.634 60.952C62.274 61.6347 63.042 61.976 63.938 61.976C64.45 61.976 64.962 61.8267 65.474 61.528C66.0287 61.2293 66.5193 60.696 66.946 59.928C67.4153 59.16 67.778 58.1147 68.034 56.792C68.3327 55.4693 68.482 53.784 68.482 51.736C68.482 51.096 68.4393 50.6053 68.354 50.264C68.3113 49.88 68.29 49.6027 68.29 49.432ZM85.6375 32.344C85.6375 32.6 85.5735 32.8347 85.4455 33.048C85.3602 33.2187 85.2108 33.304 84.9975 33.304C84.8268 33.304 84.6562 33.2827 84.4855 33.24C84.3575 33.1547 84.1228 33.112 83.7815 33.112C83.3122 33.112 82.8002 33.4747 82.2455 34.2C81.7335 34.9253 81.2428 36.0347 80.7735 37.528C80.3468 38.9787 79.9842 40.8133 79.6855 43.032C79.3868 45.2507 79.2375 47.832 79.2375 50.776C79.2375 51.7573 79.2588 52.7813 79.3015 53.848C79.3442 54.872 79.4295 55.8107 79.5575 56.664C79.7282 57.5173 79.9415 58.2213 80.1975 58.776C80.4962 59.288 80.8802 59.544 81.3495 59.544C81.8188 59.544 82.2242 59.2453 82.5655 58.648C82.9068 58.008 83.1842 57.2187 83.3975 56.28C83.6535 55.3413 83.8242 54.296 83.9095 53.144C84.0375 51.992 84.1015 50.8827 84.1015 49.816C84.1015 49.2187 84.0802 48.664 84.0375 48.152C84.0375 47.64 84.0162 47.1493 83.9735 46.68C83.5468 45.4427 83.2055 44.0773 82.9495 42.584C82.6935 41.0907 82.5655 39.5547 82.5655 37.976C82.5655 36.6107 82.6508 35.6933 82.8215 35.224C83.0348 34.712 83.5042 34.456 84.2295 34.456C84.6562 34.456 85.2108 34.5627 85.8935 34.776C86.5762 34.9893 87.0668 35.3307 87.3655 35.8C87.6642 36.2693 87.8348 36.9733 87.8775 37.912C87.9202 38.808 87.9415 39.7253 87.9415 40.664C87.9415 41.6453 87.8775 42.7333 87.7495 43.928C87.6642 45.1227 87.5788 46.2107 87.4935 47.192C87.9628 47.576 88.6242 47.768 89.4775 47.768C89.8188 47.768 90.1388 47.7467 90.4375 47.704C90.7362 47.6613 90.9708 47.64 91.1415 47.64C91.5255 47.64 91.7175 47.768 91.7175 48.024C91.7175 48.3653 91.3762 48.664 90.6935 48.92C90.0108 49.1333 89.3068 49.24 88.5815 49.24C87.9842 49.24 87.5575 49.1973 87.3015 49.112C87.1735 51.2453 86.9602 53.208 86.6615 55C86.4055 56.7493 86.0428 58.264 85.5735 59.544C85.1468 60.824 84.6348 61.8267 84.0375 62.552C83.4402 63.2773 82.7575 63.64 81.9895 63.64C81.3922 63.64 80.8375 63.4907 80.3255 63.192C79.8135 62.936 79.2375 62.552 78.5975 62.04C77.7442 61.3573 77.0828 60.4613 76.6135 59.352C76.1442 58.2427 75.8028 57.048 75.5895 55.768C75.3762 54.488 75.2482 53.208 75.2055 51.928C75.1628 50.6053 75.1415 49.4533 75.1415 48.472C75.1415 46.5093 75.2695 44.4187 75.5255 42.2C75.8242 39.9387 76.2295 37.8693 76.7415 35.992C77.2535 34.072 77.8722 32.4933 78.5975 31.256C79.3655 29.976 80.2188 29.336 81.1575 29.336C81.4135 29.336 81.7975 29.464 82.3095 29.72C82.8215 29.9333 83.3122 30.2107 83.7815 30.552C84.2935 30.8507 84.7202 31.1707 85.0615 31.512C85.4455 31.8533 85.6375 32.1307 85.6375 32.344ZM87.607 36.312C87.607 36.0133 87.8417 35.8427 88.311 35.8C88.7803 35.7573 89.2283 35.736 89.655 35.736C89.9963 35.736 90.4657 35.7787 91.063 35.864C91.703 35.9493 92.3217 36.0773 92.919 36.248C93.559 36.4187 94.0923 36.6747 94.519 37.016C94.9883 37.3147 95.223 37.6773 95.223 38.104C95.223 39.0427 95.2017 40.1733 95.159 41.496C95.159 42.776 95.1377 44.056 95.095 45.336C95.0523 46.616 95.0097 47.768 94.967 48.792C94.967 49.816 94.967 50.5413 94.967 50.968C96.247 46.4027 97.2497 42.8613 97.975 40.344C98.7003 37.8267 99.2977 35.992 99.767 34.84C100.236 33.6453 100.599 32.9413 100.855 32.728C101.154 32.472 101.495 32.344 101.879 32.344C102.135 32.344 102.498 32.408 102.967 32.536C103.479 32.664 103.97 32.8347 104.439 33.048C104.908 33.2613 105.314 33.5173 105.655 33.816C106.039 34.072 106.231 34.3493 106.231 34.648C106.231 34.904 106.082 35.5867 105.783 36.696C105.527 37.8053 105.228 39.1493 104.887 40.728C104.588 42.264 104.311 43.928 104.055 45.72C103.799 47.512 103.671 49.24 103.671 50.904C103.671 51.7147 103.671 52.4827 103.671 53.208C103.714 53.9333 103.756 54.5947 103.799 55.192C103.884 55.7467 104.012 56.1947 104.183 56.536C104.354 56.8773 104.61 57.048 104.951 57.048C105.292 57.048 105.57 56.856 105.783 56.472C105.996 56.088 106.167 55.6827 106.295 55.256C106.466 54.7867 106.615 54.36 106.743 53.976C106.914 53.592 107.106 53.4 107.319 53.4C107.618 53.4 107.81 53.592 107.895 53.976C107.98 54.3173 108.023 54.6587 108.023 55C108.023 55.512 107.938 56.088 107.767 56.728C107.639 57.368 107.426 57.9653 107.127 58.52C106.828 59.0747 106.487 59.544 106.103 59.928C105.719 60.312 105.271 60.504 104.759 60.504C104.204 60.504 103.65 60.2053 103.095 59.608C102.54 58.968 102.028 58.264 101.559 57.496C101.26 56.984 100.94 56.3013 100.599 55.448C100.3 54.552 100.151 53.1653 100.151 51.288C100.151 49.5387 100.236 47.704 100.407 45.784C100.578 43.8213 100.727 42.2213 100.855 40.984C100.599 41.4107 100.258 42.1147 99.831 43.096C99.447 44.0773 99.0417 45.2293 98.615 46.552C98.1883 47.832 97.7403 49.2187 97.271 50.712C96.8443 52.1627 96.4603 53.6133 96.119 55.064C95.7777 56.472 95.5003 57.816 95.287 59.096C95.0737 60.376 94.967 61.4427 94.967 62.296C94.967 62.552 94.903 62.744 94.775 62.872C94.6897 63 94.4763 63.064 94.135 63.064C93.4097 63.064 92.6843 62.872 91.959 62.488C91.2763 62.0613 90.8497 61.6133 90.679 61.144C90.6363 61.0587 90.615 60.8453 90.615 60.504C90.615 60.12 90.615 59.736 90.615 59.352C90.615 58.2853 90.7003 56.7493 90.871 54.744C91.0417 52.696 91.127 50.52 91.127 48.216C91.127 47.5333 91.127 46.7227 91.127 45.784C91.127 44.8027 91.0843 43.8427 90.999 42.904C90.9563 41.9653 90.871 41.0907 90.743 40.28C90.6577 39.4693 90.5297 38.8507 90.359 38.424C90.1883 37.9973 89.9323 37.6773 89.591 37.464C89.2923 37.208 88.9937 37.016 88.695 36.888C88.3963 36.76 88.1403 36.6747 87.927 36.632C87.7137 36.5467 87.607 36.44 87.607 36.312ZM105.544 36.312C105.544 36.0133 105.779 35.8427 106.248 35.8C106.718 35.7573 107.166 35.736 107.593 35.736C107.934 35.736 108.403 35.7787 109.001 35.864C109.641 35.9493 110.259 36.0773 110.857 36.248C111.497 36.4187 112.03 36.6747 112.457 37.016C112.926 37.3147 113.161 37.6773 113.161 38.104C113.161 39.0427 113.139 40.1733 113.097 41.496C113.097 42.776 113.075 44.056 113.033 45.336C112.99 46.616 112.947 47.768 112.905 48.792C112.905 49.816 112.905 50.5413 112.905 50.968C114.185 46.4027 115.187 42.8613 115.913 40.344C116.638 37.8267 117.235 35.992 117.705 34.84C118.174 33.6453 118.537 32.9413 118.793 32.728C119.091 32.472 119.433 32.344 119.817 32.344C120.073 32.344 120.435 32.408 120.905 32.536C121.417 32.664 121.907 32.8347 122.377 33.048C122.846 33.2613 123.251 33.5173 123.593 33.816C123.977 34.072 124.169 34.3493 124.169 34.648C124.169 34.904 124.019 35.5867 123.721 36.696C123.465 37.8053 123.166 39.1493 122.825 40.728C122.526 42.264 122.249 43.928 121.993 45.72C121.737 47.512 121.609 49.24 121.609 50.904C121.609 51.7147 121.609 52.4827 121.609 53.208C121.651 53.9333 121.694 54.5947 121.737 55.192C121.822 55.7467 121.95 56.1947 122.121 56.536C122.291 56.8773 122.547 57.048 122.889 57.048C123.23 57.048 123.507 56.856 123.721 56.472C123.934 56.088 124.105 55.6827 124.233 55.256C124.403 54.7867 124.553 54.36 124.681 53.976C124.851 53.592 125.043 53.4 125.257 53.4C125.555 53.4 125.747 53.592 125.833 53.976C125.918 54.3173 125.961 54.6587 125.961 55C125.961 55.512 125.875 56.088 125.705 56.728C125.577 57.368 125.363 57.9653 125.065 58.52C124.766 59.0747 124.425 59.544 124.041 59.928C123.657 60.312 123.209 60.504 122.697 60.504C122.142 60.504 121.587 60.2053 121.033 59.608C120.478 58.968 119.966 58.264 119.497 57.496C119.198 56.984 118.878 56.3013 118.537 55.448C118.238 54.552 118.089 53.1653 118.089 51.288C118.089 49.5387 118.174 47.704 118.345 45.784C118.515 43.8213 118.665 42.2213 118.793 40.984C118.537 41.4107 118.195 42.1147 117.769 43.096C117.385 44.0773 116.979 45.2293 116.553 46.552C116.126 47.832 115.678 49.2187 115.209 50.712C114.782 52.1627 114.398 53.6133 114.057 55.064C113.715 56.472 113.438 57.816 113.225 59.096C113.011 60.376 112.905 61.4427 112.905 62.296C112.905 62.552 112.841 62.744 112.713 62.872C112.627 63 112.414 63.064 112.073 63.064C111.347 63.064 110.622 62.872 109.897 62.488C109.214 62.0613 108.787 61.6133 108.617 61.144C108.574 61.0587 108.553 60.8453 108.553 60.504C108.553 60.12 108.553 59.736 108.553 59.352C108.553 58.2853 108.638 56.7493 108.809 54.744C108.979 52.696 109.065 50.52 109.065 48.216C109.065 47.5333 109.065 46.7227 109.065 45.784C109.065 44.8027 109.022 43.8427 108.937 42.904C108.894 41.9653 108.809 41.0907 108.681 40.28C108.595 39.4693 108.467 38.8507 108.297 38.424C108.126 37.9973 107.87 37.6773 107.529 37.464C107.23 37.208 106.931 37.016 106.633 36.888C106.334 36.76 106.078 36.6747 105.864 36.632C105.651 36.5467 105.544 36.44 105.544 36.312ZM132.698 50.648C131.418 50.648 130.181 50.2213 128.986 49.368C128.901 49.88 128.858 50.392 128.858 50.904C128.858 51.416 128.858 51.928 128.858 52.44C128.858 53.5493 128.901 54.5947 128.986 55.576C129.114 56.5147 129.306 57.368 129.562 58.136C129.818 58.8613 130.159 59.4373 130.586 59.864C131.013 60.2907 131.546 60.504 132.186 60.504C133.21 60.504 133.978 60.0133 134.49 59.032C135.045 58.0507 135.471 56.984 135.77 55.832C136.069 54.6373 136.282 53.5493 136.41 52.568C136.581 51.5867 136.773 51.096 136.986 51.096C137.157 51.096 137.498 51.416 138.01 52.056C138.522 52.6533 138.778 53.656 138.778 55.064C138.778 56.0027 138.629 56.984 138.33 58.008C138.074 58.9893 137.69 59.8853 137.178 60.696C136.666 61.5067 136.026 62.1893 135.258 62.744C134.533 63.256 133.679 63.512 132.698 63.512C131.717 63.512 130.735 63.2987 129.754 62.872C128.815 62.4027 127.962 61.656 127.194 60.632C126.469 59.5653 125.871 58.1787 125.402 56.472C124.975 54.7653 124.762 52.632 124.762 50.072C124.762 47.8533 124.911 45.7627 125.21 43.8C125.509 41.7947 125.914 40.0453 126.426 38.552C126.938 37.016 127.514 35.8213 128.154 34.968C128.837 34.072 129.541 33.624 130.266 33.624C130.778 33.624 131.461 33.816 132.314 34.2C133.21 34.5413 134.191 35.032 135.258 35.672C135.642 35.928 135.983 36.184 136.282 36.44C136.581 36.6533 136.815 36.952 136.986 37.336C137.199 37.6773 137.349 38.1467 137.434 38.744C137.519 39.2987 137.562 40.024 137.562 40.92C137.562 41.9867 137.477 43.096 137.306 44.248C137.135 45.4 136.858 46.4453 136.474 47.384C136.09 48.3227 135.578 49.112 134.938 49.752C134.341 50.3493 133.594 50.648 132.698 50.648ZM132.442 37.912C132.101 37.912 131.759 38.1467 131.418 38.616C131.119 39.0853 130.821 39.7253 130.522 40.536C130.266 41.3467 130.01 42.2853 129.754 43.352C129.541 44.4187 129.349 45.528 129.178 46.68C129.349 47.1493 129.583 47.512 129.882 47.768C130.223 47.9813 130.543 48.088 130.842 48.088C131.482 48.088 132.079 47.5333 132.634 46.424C133.189 45.3147 133.466 43.416 133.466 40.728C133.466 39.6613 133.381 38.936 133.21 38.552C133.082 38.1253 132.826 37.912 132.442 37.912ZM146.77 43.736C146.77 43.3947 146.876 42.968 147.09 42.456C147.303 41.944 147.41 41.0693 147.41 39.832C147.41 38.936 147.324 38.3173 147.154 37.976C147.026 37.6347 146.791 37.464 146.45 37.464C145.98 37.464 145.511 37.8693 145.042 38.68C144.615 39.4907 144.21 40.6 143.826 42.008C143.484 43.416 143.186 45.0587 142.93 46.936C142.716 48.8133 142.61 50.8187 142.61 52.952C142.61 53.9333 142.631 54.8933 142.674 55.832C142.716 56.7707 142.823 57.624 142.994 58.392C143.164 59.1173 143.399 59.7147 143.698 60.184C144.039 60.6107 144.508 60.824 145.106 60.824C145.916 60.824 146.578 60.5893 147.09 60.12C147.644 59.608 148.092 59.0107 148.434 58.328C148.775 57.6027 149.031 56.8133 149.202 55.96C149.372 55.1067 149.522 54.3387 149.65 53.656C149.778 52.9307 149.884 52.3333 149.97 51.864C150.055 51.352 150.183 51.096 150.354 51.096C150.823 51.096 151.164 51.3947 151.378 51.992C151.591 52.5893 151.698 53.336 151.698 54.232C151.698 55.256 151.57 56.3227 151.314 57.432C151.1 58.5413 150.738 59.5653 150.226 60.504C149.756 61.4 149.138 62.1467 148.37 62.744C147.644 63.2987 146.77 63.576 145.746 63.576C144.167 63.576 142.631 62.8933 141.138 61.528C140.37 60.76 139.772 59.5867 139.346 58.008C138.962 56.3867 138.77 54.2747 138.77 51.672C138.77 47.7893 139.068 44.4187 139.666 41.56C140.306 38.7013 141.095 36.568 142.034 35.16C142.418 34.5627 142.951 34.1573 143.634 33.944C144.359 33.7307 144.85 33.624 145.106 33.624C145.618 33.624 146.258 33.7093 147.026 33.88C147.794 34.0507 148.519 34.3707 149.202 34.84C149.927 35.3093 150.546 35.992 151.058 36.888C151.57 37.7413 151.826 38.8933 151.826 40.344C151.826 42.136 151.57 43.352 151.058 43.992C150.546 44.5893 149.863 44.888 149.01 44.888C148.284 44.888 147.73 44.76 147.345 44.504C146.962 44.2053 146.77 43.9493 146.77 43.736ZM150.808 35.864C150.808 35.1813 150.979 34.7333 151.32 34.52C151.661 34.264 152.024 34.1147 152.408 34.072L155.416 33.816C155.672 31.256 155.864 29.2933 155.992 27.928C156.163 26.52 156.333 25.496 156.504 24.856C156.717 24.1733 156.931 23.768 157.144 23.64C157.4 23.512 157.72 23.448 158.104 23.448C158.573 23.448 159.043 23.5333 159.512 23.704C159.981 23.8747 160.408 24.0667 160.792 24.28C161.176 24.4933 161.496 24.728 161.752 24.984C162.008 25.1973 162.136 25.3893 162.136 25.56C162.136 25.9013 161.965 26.264 161.624 26.648C161.325 26.9893 161.048 27.7147 160.792 28.824C160.451 30.1467 160.152 31.6827 159.896 33.432C160.323 33.432 160.685 33.432 160.984 33.432C161.283 33.3893 161.539 33.368 161.752 33.368C162.392 33.368 162.968 33.496 163.48 33.752C164.035 34.008 164.483 34.328 164.824 34.712C165.208 35.0533 165.507 35.4373 165.72 35.864C165.933 36.248 166.04 36.5893 166.04 36.888C166.04 37.2293 165.955 37.4427 165.784 37.528C165.613 37.5707 165.251 37.592 164.696 37.592C162.52 37.592 160.728 37.656 159.32 37.784C159.021 39.8747 158.787 42.0507 158.616 44.312C158.445 46.5733 158.36 48.792 158.36 50.968C158.36 54.2107 158.616 56.792 159.128 58.712C159.64 60.5893 160.323 61.528 161.176 61.528C161.688 61.528 162.093 61.3147 162.392 60.888C162.691 60.4613 162.904 59.928 163.032 59.288C163.203 58.6053 163.309 57.8587 163.352 57.048C163.437 56.2373 163.48 55.4693 163.48 54.744C163.48 54.4453 163.544 54.2747 163.672 54.232C163.8 54.1893 163.907 54.168 163.992 54.168C164.461 54.168 164.824 54.552 165.08 55.32C165.336 56.088 165.464 56.9413 165.464 57.88C165.464 58.6053 165.379 59.3733 165.208 60.184C165.08 60.952 164.845 61.656 164.504 62.296C164.205 62.936 163.8 63.4693 163.288 63.896C162.819 64.3227 162.243 64.536 161.56 64.536C160.707 64.536 159.704 64.0667 158.552 63.128C157.4 62.232 156.483 60.9307 155.8 59.224C155.245 57.944 154.883 56.472 154.712 54.808C154.541 53.144 154.456 50.9893 154.456 48.344C154.456 47.064 154.499 45.5067 154.584 43.672C154.712 41.7947 154.861 39.96 155.032 38.168C154.221 38.3387 153.603 38.4667 153.176 38.552C152.792 38.6373 152.515 38.68 152.344 38.68C151.789 38.68 151.384 38.3387 151.128 37.656C150.915 36.9733 150.808 36.376 150.808 35.864Z" fill="black"/>
</svg>
