<svg width="68" height="55" viewBox="0 0 68 55" fill="none" xmlns="http://www.w3.org/2000/svg">
<path d="M5.44 21.2C5.81333 21.2 6.24 21.3067 6.72 21.52C7.22667 21.7333 7.61333 21.9067 7.88 22.04C8.09333 22.0133 8.32 22 8.56 22C8.82667 21.9733 9.09333 21.96 9.36 21.96C9.68 21.96 10.0933 22.04 10.6 22.2C11.1067 22.36 11.7867 22.7733 12.64 23.44C13.0933 23.7867 13.48 24.1467 13.8 24.52C14.12 24.8933 14.3867 25.32 14.6 25.8C14.8133 26.28 14.96 26.8267 15.04 27.44C15.1467 28.0533 15.2 28.76 15.2 29.56C15.2 30.7067 15.0667 31.9333 14.8 33.24C14.5333 34.5467 14.1733 35.8533 13.72 37.16C13.2933 38.44 12.7867 39.68 12.2 40.88C11.64 42.08 11.0667 43.1333 10.48 44.04C9.89333 44.9467 9.32 45.6667 8.76 46.2C8.2 46.76 7.69333 47.04 7.24 47.04C6.84 47.04 6.41333 46.8533 5.96 46.48C5.50667 46.1333 5.13333 45.6933 4.84 45.16C4.62667 44.76 4.45333 44.3733 4.32 44C4.21333 43.6267 4.13333 43.1733 4.08 42.64C4.02667 42.1067 3.98667 41.4533 3.96 40.68C3.96 39.9067 3.96 38.92 3.96 37.72C3.96 34.76 4 32.28 4.08 30.28C4.18667 28.28 4.26667 26.64 4.32 25.36C3.68 25.68 3.21333 25.9733 2.92 26.24C2.65333 26.5067 2.46667 26.7467 2.36 26.96C2.28 27.1733 2.22667 27.3467 2.2 27.48C2.2 27.5867 2.14667 27.64 2.04 27.64C1.88 27.64 1.70667 27.56 1.52 27.4C1.30667 27.24 1.12 27.04 0.96 26.8C0.773333 26.56 0.613333 26.3067 0.48 26.04C0.346667 25.7733 0.28 25.52 0.28 25.28C0.28 24.8267 0.68 24.36 1.48 23.88C2.28 23.4 3.29333 22.9867 4.52 22.64C4.54667 22.5067 4.56 22.4 4.56 22.32C4.56 22.2133 4.56 22.12 4.56 22.04C4.56 21.72 4.61333 21.5067 4.72 21.4C4.82667 21.2667 5.06667 21.2 5.44 21.2ZM12.32 28.68C12.32 27.9867 12.28 27.3733 12.2 26.84C12.1467 26.28 12.0133 25.8133 11.8 25.44C11.5867 25.0667 11.2933 24.7867 10.92 24.6C10.5467 24.3867 10.0533 24.28 9.44 24.28C9.06667 24.28 8.72 24.2933 8.4 24.32C8.08 24.3467 7.76 24.3867 7.44 24.44C7.14667 25.8267 6.92 27.7333 6.76 30.16C6.6 32.5867 6.52 35.6133 6.52 39.24C6.52 40.2 6.52 41 6.52 41.64C6.54667 42.28 6.57333 42.7867 6.6 43.16C6.65333 43.5333 6.72 43.8 6.8 43.96C6.90667 44.0933 7.04 44.16 7.2 44.16C7.38667 44.16 7.64 43.9467 7.96 43.52C8.28 43.0667 8.62667 42.4667 9 41.72C9.4 40.9467 9.78667 40.0533 10.16 39.04C10.56 38 10.92 36.9067 11.24 35.76C11.56 34.6133 11.8133 33.44 12 32.24C12.2133 31.0133 12.32 29.8267 12.32 28.68ZM20.4831 38.28C19.6831 38.28 18.9098 38.0133 18.1631 37.48C18.1098 37.8 18.0831 38.12 18.0831 38.44C18.0831 38.76 18.0831 39.08 18.0831 39.4C18.0831 40.0933 18.1098 40.7467 18.1631 41.36C18.2431 41.9467 18.3631 42.48 18.5231 42.96C18.6831 43.4133 18.8965 43.7733 19.1631 44.04C19.4298 44.3067 19.7631 44.44 20.1631 44.44C20.8031 44.44 21.2831 44.1333 21.6031 43.52C21.9498 42.9067 22.2165 42.24 22.4031 41.52C22.5898 40.7733 22.7231 40.0933 22.8031 39.48C22.9098 38.8667 23.0298 38.56 23.1631 38.56C23.2698 38.56 23.4831 38.76 23.8031 39.16C24.1231 39.5333 24.2831 40.16 24.2831 41.04C24.2831 41.6267 24.1898 42.24 24.0031 42.88C23.8431 43.4933 23.6031 44.0533 23.2831 44.56C22.9631 45.0667 22.5631 45.4933 22.0831 45.84C21.6298 46.16 21.0965 46.32 20.4831 46.32C19.8698 46.32 19.2565 46.1867 18.6431 45.92C18.0565 45.6267 17.5231 45.16 17.0431 44.52C16.5898 43.8533 16.2165 42.9867 15.9231 41.92C15.6565 40.8533 15.5231 39.52 15.5231 37.92C15.5231 36.5333 15.6165 35.2267 15.8031 34C15.9898 32.7467 16.2431 31.6533 16.5631 30.72C16.8831 29.76 17.2431 29.0133 17.6431 28.48C18.0698 27.92 18.5098 27.64 18.9631 27.64C19.2831 27.64 19.7098 27.76 20.2431 28C20.8031 28.2133 21.4165 28.52 22.0831 28.92C22.3231 29.08 22.5365 29.24 22.7231 29.4C22.9098 29.5333 23.0565 29.72 23.1631 29.96C23.2965 30.1733 23.3898 30.4667 23.4431 30.84C23.4965 31.1867 23.5231 31.64 23.5231 32.2C23.5231 32.8667 23.4698 33.56 23.3631 34.28C23.2565 35 23.0831 35.6533 22.8431 36.24C22.6031 36.8267 22.2831 37.32 21.8831 37.72C21.5098 38.0933 21.0431 38.28 20.4831 38.28ZM20.3231 30.32C20.1098 30.32 19.8965 30.4667 19.6831 30.76C19.4965 31.0533 19.3098 31.4533 19.1231 31.96C18.9631 32.4667 18.8031 33.0533 18.6431 33.72C18.5098 34.3867 18.3898 35.08 18.2831 35.8C18.3898 36.0933 18.5365 36.32 18.7231 36.48C18.9365 36.6133 19.1365 36.68 19.3231 36.68C19.7231 36.68 20.0965 36.3333 20.4431 35.64C20.7898 34.9467 20.9631 33.76 20.9631 32.08C20.9631 31.4133 20.9098 30.96 20.8031 30.72C20.7231 30.4533 20.5631 30.32 20.3231 30.32ZM25.3884 27.68C25.9218 27.68 26.4284 27.7733 26.9084 27.96C27.4151 28.12 27.6684 28.3733 27.6684 28.72C27.6684 28.8 27.6418 28.8933 27.5884 29C27.5351 29.08 27.4818 29.24 27.4284 29.48C27.3751 29.72 27.3218 30.08 27.2684 30.56C27.2151 31.0133 27.1884 31.64 27.1884 32.44C27.1884 33.64 27.2151 34.7733 27.2684 35.84C27.3218 36.9067 27.3884 37.84 27.4684 38.64C27.5751 39.4133 27.6951 40.0267 27.8284 40.48C27.9884 40.9333 28.1751 41.16 28.3884 41.16C28.5751 41.16 28.7618 40.8667 28.9484 40.28C29.1618 39.6933 29.3484 39.0133 29.5084 38.24C29.6951 37.4667 29.8418 36.7067 29.9484 35.96C30.0551 35.2133 30.1218 34.68 30.1484 34.36C30.0951 33.9067 30.0684 33.52 30.0684 33.2C30.0684 32.8533 30.0684 32.4667 30.0684 32.04C30.0684 31.1333 30.0951 30.2667 30.1484 29.44C30.2018 28.5867 30.2951 27.8267 30.4284 27.16C30.5618 26.4933 30.7351 25.96 30.9484 25.56C31.1618 25.16 31.4284 24.96 31.7484 24.96C31.9351 24.96 32.1351 25.0133 32.3484 25.12C32.5884 25.2 32.8018 25.32 32.9884 25.48C33.2018 25.64 33.3751 25.84 33.5084 26.08C33.6684 26.32 33.7484 26.5867 33.7484 26.88C33.7484 27.1467 33.6951 27.6133 33.5884 28.28C33.4818 28.9467 33.3484 29.6667 33.1884 30.44C33.0551 31.2133 32.9084 31.9733 32.7484 32.72C32.5884 33.44 32.4551 34 32.3484 34.4C32.4018 34.8 32.5351 35.0667 32.7484 35.2C32.9884 35.3333 33.2018 35.4 33.3884 35.4C33.5218 35.4 33.6151 35.3867 33.6684 35.36C33.7484 35.3333 33.8151 35.32 33.8684 35.32C33.9751 35.32 34.0284 35.4133 34.0284 35.6C34.0284 35.9733 33.6818 36.16 32.9884 36.16C32.6418 36.16 32.3351 36.1333 32.0684 36.08C31.8018 36.0267 31.6151 35.9733 31.5084 35.92C31.3484 36.96 31.1351 38.0667 30.8684 39.24C30.6284 40.3867 30.3484 41.4533 30.0284 42.44C29.7351 43.4 29.4151 44.2 29.0684 44.84C28.7484 45.4533 28.4418 45.76 28.1484 45.76C28.0151 45.76 27.8684 45.68 27.7084 45.52C27.5484 45.36 27.2951 45.1067 26.9484 44.76C26.7351 44.5467 26.5484 44.3467 26.3884 44.16C26.2551 43.9733 26.1351 43.7067 26.0284 43.36C25.9484 42.9867 25.8551 42.5067 25.7484 41.92C25.6418 41.3067 25.5218 40.4667 25.3884 39.4C25.0151 36.3333 24.7351 33.9467 24.5484 32.24C24.3884 30.5333 24.3084 29.32 24.3084 28.6C24.3084 28.3867 24.3751 28.1867 24.5084 28C24.6684 27.7867 24.9618 27.68 25.3884 27.68ZM42.8063 37.52C42.8063 37.36 42.9129 37.2133 43.1263 37.08C43.3663 36.9467 43.6596 36.88 44.0063 36.88C44.7263 36.88 45.2063 37.1333 45.4463 37.64C45.6863 38.1467 45.8063 38.72 45.8063 39.36C45.8063 40.1333 45.7263 40.9867 45.5663 41.92C45.4329 42.8267 45.1796 43.68 44.8063 44.48C44.4596 45.2533 43.9929 45.8933 43.4062 46.4C42.8196 46.9333 42.0863 47.2 41.2063 47.2C38.7796 47.2 37.0063 46.2933 35.8863 44.48C34.7929 42.64 34.2463 40 34.2463 36.56C34.2463 35.6 34.2729 34.52 34.3263 33.32C34.4063 32.12 34.5263 30.9067 34.6863 29.68C34.8463 28.4533 35.0596 27.2667 35.3263 26.12C35.5929 24.9467 35.9263 23.9067 36.3263 23C36.7263 22.0933 37.1929 21.3733 37.7263 20.84C38.2596 20.28 38.8863 20 39.6063 20C40.6996 20 41.5796 20.2267 42.2463 20.68C42.9396 21.1333 43.4596 21.6933 43.8063 22.36C44.1796 23.0267 44.4196 23.76 44.5263 24.56C44.6596 25.3333 44.7263 26.0533 44.7263 26.72C44.7263 27.36 44.6996 27.9733 44.6463 28.56C44.6196 29.1467 44.5396 29.6533 44.4063 30.08C44.2729 30.5067 44.0863 30.8533 43.8463 31.12C43.6063 31.36 43.2863 31.48 42.8863 31.48C42.4596 31.48 42.0063 31.3867 41.5263 31.2C41.0463 31.0133 40.8063 30.7333 40.8063 30.36C40.8063 30.2533 40.8463 30.12 40.9263 29.96C41.0063 29.7733 41.0863 29.5467 41.1663 29.28C41.2729 28.9867 41.3663 28.6133 41.4463 28.16C41.5263 27.7067 41.5663 27.1333 41.5663 26.44C41.5663 25.0533 41.4729 24.12 41.2863 23.64C41.0996 23.1333 40.8596 22.88 40.5663 22.88C40.2196 22.88 39.8863 23.12 39.5663 23.6C39.2729 24.08 38.9929 24.72 38.7263 25.52C38.4596 26.2933 38.2196 27.1867 38.0063 28.2C37.7929 29.1867 37.6063 30.2267 37.4463 31.32C37.2863 32.3867 37.1663 33.44 37.0863 34.48C37.0063 35.52 36.9663 36.4667 36.9663 37.32C36.9663 38.4133 37.0196 39.4533 37.1263 40.44C37.2329 41.4 37.4063 42.2533 37.6463 43C37.9129 43.72 38.2463 44.2933 38.6463 44.72C39.0463 45.1467 39.5263 45.36 40.0863 45.36C40.4063 45.36 40.7263 45.2667 41.0463 45.08C41.3929 44.8933 41.6996 44.56 41.9663 44.08C42.2596 43.6 42.4863 42.9467 42.6463 42.12C42.8329 41.2933 42.9263 40.24 42.9263 38.96C42.9263 38.56 42.8996 38.2533 42.8463 38.04C42.8196 37.8 42.8063 37.6267 42.8063 37.52ZM53.6484 26.84C53.6484 27 53.6084 27.1467 53.5284 27.28C53.4751 27.3867 53.3818 27.44 53.2484 27.44C53.1418 27.44 53.0351 27.4267 52.9284 27.4C52.8484 27.3467 52.7018 27.32 52.4884 27.32C52.1951 27.32 51.8751 27.5467 51.5284 28C51.2084 28.4533 50.9018 29.1467 50.6084 30.08C50.3418 30.9867 50.1151 32.1333 49.9284 33.52C49.7418 34.9067 49.6484 36.52 49.6484 38.36C49.6484 38.9733 49.6618 39.6133 49.6884 40.28C49.7151 40.92 49.7684 41.5067 49.8484 42.04C49.9551 42.5733 50.0884 43.0133 50.2484 43.36C50.4351 43.68 50.6751 43.84 50.9684 43.84C51.2618 43.84 51.5151 43.6533 51.7284 43.28C51.9418 42.88 52.1151 42.3867 52.2484 41.8C52.4084 41.2133 52.5151 40.56 52.5684 39.84C52.6484 39.12 52.6884 38.4267 52.6884 37.76C52.6884 37.3867 52.6751 37.04 52.6484 36.72C52.6484 36.4 52.6351 36.0933 52.6084 35.8C52.3418 35.0267 52.1284 34.1733 51.9684 33.24C51.8084 32.3067 51.7284 31.3467 51.7284 30.36C51.7284 29.5067 51.7818 28.9333 51.8884 28.64C52.0218 28.32 52.3151 28.16 52.7684 28.16C53.0351 28.16 53.3818 28.2267 53.8084 28.36C54.2351 28.4933 54.5418 28.7067 54.7284 29C54.9151 29.2933 55.0218 29.7333 55.0484 30.32C55.0751 30.88 55.0884 31.4533 55.0884 32.04C55.0884 32.6533 55.0484 33.3333 54.9684 34.08C54.9151 34.8267 54.8618 35.5067 54.8084 36.12C55.1018 36.36 55.5151 36.48 56.0484 36.48C56.2618 36.48 56.4618 36.4667 56.6484 36.44C56.8351 36.4133 56.9818 36.4 57.0884 36.4C57.3284 36.4 57.4484 36.48 57.4484 36.64C57.4484 36.8533 57.2351 37.04 56.8084 37.2C56.3818 37.3333 55.9418 37.4 55.4884 37.4C55.1151 37.4 54.8484 37.3733 54.6884 37.32C54.6084 38.6533 54.4751 39.88 54.2884 41C54.1284 42.0933 53.9018 43.04 53.6084 43.84C53.3418 44.64 53.0218 45.2667 52.6484 45.72C52.2751 46.1733 51.8484 46.4 51.3684 46.4C50.9951 46.4 50.6484 46.3067 50.3284 46.12C50.0084 45.96 49.6484 45.72 49.2484 45.4C48.7151 44.9733 48.3018 44.4133 48.0084 43.72C47.7151 43.0267 47.5018 42.28 47.3684 41.48C47.2351 40.68 47.1551 39.88 47.1284 39.08C47.1018 38.2533 47.0884 37.5333 47.0884 36.92C47.0884 35.6933 47.1684 34.3867 47.3284 33C47.5151 31.5867 47.7684 30.2933 48.0884 29.12C48.4084 27.92 48.7951 26.9333 49.2484 26.16C49.7284 25.36 50.2618 24.96 50.8484 24.96C51.0084 24.96 51.2484 25.04 51.5684 25.2C51.8884 25.3333 52.1951 25.5067 52.4884 25.72C52.8084 25.9067 53.0751 26.1067 53.2884 26.32C53.5284 26.5333 53.6484 26.7067 53.6484 26.84ZM54.8794 29.32C54.8794 29.1333 55.026 29.0267 55.3194 29C55.6127 28.9733 55.8927 28.96 56.1594 28.96C56.3727 28.96 56.666 28.9867 57.0394 29.04C57.4394 29.0933 57.826 29.1733 58.1994 29.28C58.5994 29.3867 58.9327 29.5467 59.1994 29.76C59.4927 29.9467 59.6394 30.1733 59.6394 30.44C59.6394 31.0267 59.626 31.7333 59.5994 32.56C59.5994 33.36 59.586 34.16 59.5594 34.96C59.5327 35.76 59.506 36.48 59.4794 37.12C59.4794 37.76 59.4794 38.2133 59.4794 38.48C60.2794 35.6267 60.906 33.4133 61.3594 31.84C61.8127 30.2667 62.186 29.12 62.4794 28.4C62.7727 27.6533 62.9994 27.2133 63.1594 27.08C63.346 26.92 63.5594 26.84 63.7994 26.84C63.9594 26.84 64.186 26.88 64.4794 26.96C64.7994 27.04 65.106 27.1467 65.3994 27.28C65.6927 27.4133 65.946 27.5733 66.1594 27.76C66.3994 27.92 66.5194 28.0933 66.5194 28.28C66.5194 28.44 66.426 28.8667 66.2394 29.56C66.0794 30.2533 65.8927 31.0933 65.6794 32.08C65.4927 33.04 65.3194 34.08 65.1594 35.2C64.9994 36.32 64.9194 37.4 64.9194 38.44C64.9194 38.9467 64.9194 39.4267 64.9194 39.88C64.946 40.3333 64.9727 40.7467 64.9994 41.12C65.0527 41.4667 65.1327 41.7467 65.2394 41.96C65.346 42.1733 65.506 42.28 65.7194 42.28C65.9327 42.28 66.106 42.16 66.2394 41.92C66.3727 41.68 66.4794 41.4267 66.5594 41.16C66.666 40.8667 66.7594 40.6 66.8394 40.36C66.946 40.12 67.066 40 67.1994 40C67.386 40 67.506 40.12 67.5594 40.36C67.6127 40.5733 67.6394 40.7867 67.6394 41C67.6394 41.32 67.586 41.68 67.4794 42.08C67.3994 42.48 67.266 42.8533 67.0794 43.2C66.8927 43.5467 66.6794 43.84 66.4394 44.08C66.1994 44.32 65.9194 44.44 65.5994 44.44C65.2527 44.44 64.906 44.2533 64.5594 43.88C64.2127 43.48 63.8927 43.04 63.5994 42.56C63.4127 42.24 63.2127 41.8133 62.9994 41.28C62.8127 40.72 62.7194 39.8533 62.7194 38.68C62.7194 37.5867 62.7727 36.44 62.8794 35.24C62.986 34.0133 63.0794 33.0133 63.1594 32.24C62.9994 32.5067 62.786 32.9467 62.5194 33.56C62.2794 34.1733 62.026 34.8933 61.7594 35.72C61.4927 36.52 61.2127 37.3867 60.9194 38.32C60.6527 39.2267 60.4127 40.1333 60.1994 41.04C59.986 41.92 59.8127 42.76 59.6794 43.56C59.546 44.36 59.4794 45.0267 59.4794 45.56C59.4794 45.72 59.4394 45.84 59.3594 45.92C59.306 46 59.1727 46.04 58.9594 46.04C58.506 46.04 58.0527 45.92 57.5994 45.68C57.1727 45.4133 56.906 45.1333 56.7994 44.84C56.7727 44.7867 56.7594 44.6533 56.7594 44.44C56.7594 44.2 56.7594 43.96 56.7594 43.72C56.7594 43.0533 56.8127 42.0933 56.9194 40.84C57.026 39.56 57.0794 38.2 57.0794 36.76C57.0794 36.3333 57.0794 35.8267 57.0794 35.24C57.0794 34.6267 57.0527 34.0267 56.9994 33.44C56.9727 32.8533 56.9194 32.3067 56.8394 31.8C56.786 31.2933 56.706 30.9067 56.5994 30.64C56.4927 30.3733 56.3327 30.1733 56.1194 30.04C55.9327 29.88 55.746 29.76 55.5594 29.68C55.3727 29.6 55.2127 29.5467 55.0794 29.52C54.946 29.4667 54.8794 29.4 54.8794 29.32Z" fill="black"/>
</svg>
