<svg width="126" height="55" viewBox="0 0 126 55" fill="none" xmlns="http://www.w3.org/2000/svg">
<path d="M7.128 18.24C7.576 18.24 8.088 18.368 8.664 18.624C9.272 18.88 9.736 19.088 10.056 19.248C10.312 19.216 10.584 19.2 10.872 19.2C11.192 19.168 11.512 19.152 11.832 19.152C12.216 19.152 12.712 19.248 13.32 19.44C13.928 19.632 14.744 20.128 15.768 20.928C16.312 21.344 16.776 21.776 17.16 22.224C17.544 22.672 17.864 23.184 18.12 23.76C18.376 24.336 18.552 24.992 18.648 25.728C18.776 26.464 18.84 27.312 18.84 28.272C18.84 29.648 18.68 31.12 18.36 32.688C18.04 34.256 17.608 35.824 17.064 37.392C16.552 38.928 15.944 40.416 15.24 41.856C14.568 43.296 13.88 44.56 13.176 45.648C12.472 46.736 11.784 47.6 11.112 48.24C10.44 48.912 9.832 49.248 9.288 49.248C8.808 49.248 8.296 49.024 7.752 48.576C7.208 48.16 6.76 47.632 6.408 46.992C6.152 46.512 5.944 46.048 5.784 45.6C5.656 45.152 5.56 44.608 5.496 43.968C5.432 43.328 5.384 42.544 5.352 41.616C5.352 40.688 5.352 39.504 5.352 38.064C5.352 34.512 5.4 31.536 5.496 29.136C5.624 26.736 5.72 24.768 5.784 23.232C5.016 23.616 4.456 23.968 4.104 24.288C3.784 24.608 3.56 24.896 3.432 25.152C3.336 25.408 3.272 25.616 3.24 25.776C3.24 25.904 3.176 25.968 3.048 25.968C2.856 25.968 2.648 25.872 2.424 25.68C2.168 25.488 1.944 25.248 1.752 24.96C1.528 24.672 1.336 24.368 1.176 24.048C1.016 23.728 0.936 23.424 0.936 23.136C0.936 22.592 1.416 22.032 2.376 21.456C3.336 20.88 4.552 20.384 6.024 19.968C6.056 19.808 6.072 19.68 6.072 19.584C6.072 19.456 6.072 19.344 6.072 19.248C6.072 18.864 6.136 18.608 6.264 18.48C6.392 18.32 6.68 18.24 7.128 18.24ZM15.384 27.216C15.384 26.384 15.336 25.648 15.24 25.008C15.176 24.336 15.016 23.776 14.76 23.328C14.504 22.88 14.152 22.544 13.704 22.32C13.256 22.064 12.664 21.936 11.928 21.936C11.48 21.936 11.064 21.952 10.68 21.984C10.296 22.016 9.912 22.064 9.528 22.128C9.176 23.792 8.904 26.08 8.712 28.992C8.52 31.904 8.424 35.536 8.424 39.888C8.424 41.04 8.424 42 8.424 42.768C8.456 43.536 8.488 44.144 8.52 44.592C8.584 45.04 8.664 45.36 8.76 45.552C8.888 45.712 9.048 45.792 9.24 45.792C9.464 45.792 9.768 45.536 10.152 45.024C10.536 44.48 10.952 43.76 11.4 42.864C11.88 41.936 12.344 40.864 12.792 39.648C13.272 38.4 13.704 37.088 14.088 35.712C14.472 34.336 14.776 32.928 15 31.488C15.256 30.016 15.384 28.592 15.384 27.216ZM25.1797 38.736C24.2198 38.736 23.2918 38.416 22.3958 37.776C22.3318 38.16 22.2998 38.544 22.2998 38.928C22.2998 39.312 22.2998 39.696 22.2998 40.08C22.2998 40.912 22.3318 41.696 22.3958 42.432C22.4918 43.136 22.6358 43.776 22.8278 44.352C23.0198 44.896 23.2758 45.328 23.5958 45.648C23.9158 45.968 24.3158 46.128 24.7958 46.128C25.5638 46.128 26.1398 45.76 26.5238 45.024C26.9398 44.288 27.2598 43.488 27.4838 42.624C27.7078 41.728 27.8678 40.912 27.9638 40.176C28.0918 39.44 28.2358 39.072 28.3958 39.072C28.5238 39.072 28.7798 39.312 29.1638 39.792C29.5478 40.24 29.7398 40.992 29.7398 42.048C29.7398 42.752 29.6278 43.488 29.4038 44.256C29.2118 44.992 28.9238 45.664 28.5398 46.272C28.1558 46.88 27.6758 47.392 27.0998 47.808C26.5558 48.192 25.9158 48.384 25.1797 48.384C24.4438 48.384 23.7078 48.224 22.9718 47.904C22.2678 47.552 21.6278 46.992 21.0518 46.224C20.5078 45.424 20.0598 44.384 19.7078 43.104C19.3878 41.824 19.2278 40.224 19.2278 38.304C19.2278 36.64 19.3398 35.072 19.5638 33.6C19.7878 32.096 20.0918 30.784 20.4758 29.664C20.8598 28.512 21.2918 27.616 21.7718 26.976C22.2838 26.304 22.8118 25.968 23.3558 25.968C23.7398 25.968 24.2518 26.112 24.8918 26.4C25.5638 26.656 26.2998 27.024 27.0998 27.504C27.3878 27.696 27.6438 27.888 27.8678 28.08C28.0918 28.24 28.2678 28.464 28.3958 28.752C28.5558 29.008 28.6678 29.36 28.7318 29.808C28.7958 30.224 28.8278 30.768 28.8278 31.44C28.8278 32.24 28.7638 33.072 28.6358 33.936C28.5078 34.8 28.2998 35.584 28.0118 36.288C27.7238 36.992 27.3398 37.584 26.8598 38.064C26.4118 38.512 25.8518 38.736 25.1797 38.736ZM24.9878 29.184C24.7318 29.184 24.4758 29.36 24.2198 29.712C23.9958 30.064 23.7718 30.544 23.5478 31.152C23.3558 31.76 23.1638 32.464 22.9718 33.264C22.8118 34.064 22.6678 34.896 22.5398 35.76C22.6678 36.112 22.8438 36.384 23.0678 36.576C23.3238 36.736 23.5638 36.816 23.7878 36.816C24.2678 36.816 24.7158 36.4 25.1318 35.568C25.5478 34.736 25.7558 33.312 25.7558 31.296C25.7558 30.496 25.6918 29.952 25.5638 29.664C25.4678 29.344 25.2758 29.184 24.9878 29.184ZM31.0661 26.016C31.7061 26.016 32.3141 26.128 32.8901 26.352C33.4981 26.544 33.8021 26.848 33.8021 27.264C33.8021 27.36 33.7701 27.472 33.7061 27.6C33.6421 27.696 33.5781 27.888 33.5141 28.176C33.4501 28.464 33.3861 28.896 33.3221 29.472C33.2581 30.016 33.2261 30.768 33.2261 31.728C33.2261 33.168 33.2581 34.528 33.3221 35.808C33.3861 37.088 33.4661 38.208 33.5621 39.168C33.6901 40.096 33.8341 40.832 33.9941 41.376C34.1861 41.92 34.4101 42.192 34.6661 42.192C34.8901 42.192 35.1141 41.84 35.3381 41.136C35.5941 40.432 35.8181 39.616 36.0101 38.688C36.2341 37.76 36.4101 36.848 36.5381 35.952C36.6661 35.056 36.7461 34.416 36.7781 34.032C36.7141 33.488 36.6821 33.024 36.6821 32.64C36.6821 32.224 36.6821 31.76 36.6821 31.248C36.6821 30.16 36.7141 29.12 36.7781 28.128C36.8421 27.104 36.9541 26.192 37.1141 25.392C37.2741 24.592 37.4821 23.952 37.7381 23.472C37.9941 22.992 38.3141 22.752 38.6981 22.752C38.9221 22.752 39.1621 22.816 39.4181 22.944C39.7061 23.04 39.9621 23.184 40.1861 23.376C40.4421 23.568 40.6501 23.808 40.8101 24.096C41.0021 24.384 41.0981 24.704 41.0981 25.056C41.0981 25.376 41.0341 25.936 40.9061 26.736C40.7781 27.536 40.6181 28.4 40.4261 29.328C40.2661 30.256 40.0901 31.168 39.8981 32.064C39.7061 32.928 39.5461 33.6 39.4181 34.08C39.4821 34.56 39.6421 34.88 39.8981 35.04C40.1861 35.2 40.4421 35.28 40.6661 35.28C40.8261 35.28 40.9381 35.264 41.0021 35.232C41.0981 35.2 41.1781 35.184 41.2421 35.184C41.3701 35.184 41.4341 35.296 41.4341 35.52C41.4341 35.968 41.0181 36.192 40.1861 36.192C39.7701 36.192 39.4021 36.16 39.0821 36.096C38.7621 36.032 38.5381 35.968 38.4101 35.904C38.2181 37.152 37.9621 38.48 37.6421 39.888C37.3541 41.264 37.0181 42.544 36.6341 43.728C36.2821 44.88 35.8981 45.84 35.4821 46.608C35.0981 47.344 34.7301 47.712 34.3781 47.712C34.2181 47.712 34.0421 47.616 33.8501 47.424C33.6581 47.232 33.3541 46.928 32.9381 46.512C32.6821 46.256 32.4581 46.016 32.2661 45.792C32.1061 45.568 31.9621 45.248 31.8341 44.832C31.7381 44.384 31.6261 43.808 31.4981 43.104C31.3701 42.368 31.2261 41.36 31.0661 40.08C30.6181 36.4 30.2821 33.536 30.0581 31.488C29.8661 29.44 29.7701 27.984 29.7701 27.12C29.7701 26.864 29.8501 26.624 30.0101 26.4C30.2021 26.144 30.5541 26.016 31.0661 26.016ZM51.9675 37.824C51.9675 37.632 52.0955 37.456 52.3515 37.296C52.6395 37.136 52.9915 37.056 53.4075 37.056C54.2715 37.056 54.8475 37.36 55.1355 37.968C55.4235 38.576 55.5675 39.264 55.5675 40.032C55.5675 40.96 55.4715 41.984 55.2795 43.104C55.1195 44.192 54.8155 45.216 54.3675 46.176C53.9515 47.104 53.3915 47.872 52.6875 48.48C51.9835 49.12 51.1035 49.44 50.0475 49.44C47.1355 49.44 45.0075 48.352 43.6635 46.176C42.3515 43.968 41.6955 40.8 41.6955 36.672C41.6955 35.52 41.7275 34.224 41.7915 32.784C41.8875 31.344 42.0315 29.888 42.2235 28.416C42.4155 26.944 42.6715 25.52 42.9915 24.144C43.3115 22.736 43.7115 21.488 44.1915 20.4C44.6715 19.312 45.2315 18.448 45.8715 17.808C46.5115 17.136 47.2635 16.8 48.1275 16.8C49.4395 16.8 50.4955 17.072 51.2955 17.616C52.1275 18.16 52.7515 18.832 53.1675 19.632C53.6155 20.432 53.9035 21.312 54.0315 22.272C54.1915 23.2 54.2715 24.064 54.2715 24.864C54.2715 25.632 54.2395 26.368 54.1755 27.072C54.1435 27.776 54.0475 28.384 53.8875 28.896C53.7275 29.408 53.5035 29.824 53.2155 30.144C52.9275 30.432 52.5435 30.576 52.0635 30.576C51.5515 30.576 51.0075 30.464 50.4315 30.24C49.8555 30.016 49.5675 29.68 49.5675 29.232C49.5675 29.104 49.6155 28.944 49.7115 28.752C49.8075 28.528 49.9035 28.256 49.9995 27.936C50.1275 27.584 50.2395 27.136 50.3355 26.592C50.4315 26.048 50.4795 25.36 50.4795 24.528C50.4795 22.864 50.3675 21.744 50.1435 21.168C49.9195 20.56 49.6315 20.256 49.2795 20.256C48.8635 20.256 48.4635 20.544 48.0795 21.12C47.7275 21.696 47.3915 22.464 47.0715 23.424C46.7515 24.352 46.4635 25.424 46.2075 26.64C45.9515 27.824 45.7275 29.072 45.5355 30.384C45.3435 31.664 45.1995 32.928 45.1035 34.176C45.0075 35.424 44.9595 36.56 44.9595 37.584C44.9595 38.896 45.0235 40.144 45.1515 41.328C45.2795 42.48 45.4875 43.504 45.7755 44.4C46.0955 45.264 46.4955 45.952 46.9755 46.464C47.4555 46.976 48.0315 47.232 48.7035 47.232C49.0875 47.232 49.4715 47.12 49.8555 46.896C50.2715 46.672 50.6395 46.272 50.9595 45.696C51.3115 45.12 51.5835 44.336 51.7755 43.344C51.9995 42.352 52.1115 41.088 52.1115 39.552C52.1115 39.072 52.0795 38.704 52.0155 38.448C51.9835 38.16 51.9675 37.952 51.9675 37.824ZM64.9781 25.008C64.9781 25.2 64.9301 25.376 64.8341 25.536C64.7701 25.664 64.6581 25.728 64.4981 25.728C64.3701 25.728 64.2421 25.712 64.1141 25.68C64.0181 25.616 63.8421 25.584 63.5861 25.584C63.2341 25.584 62.8501 25.856 62.4341 26.4C62.0501 26.944 61.6821 27.776 61.3301 28.896C61.0101 29.984 60.7381 31.36 60.5141 33.024C60.2901 34.688 60.1781 36.624 60.1781 38.832C60.1781 39.568 60.1941 40.336 60.2261 41.136C60.2581 41.904 60.3221 42.608 60.4181 43.248C60.5461 43.888 60.7061 44.416 60.8981 44.832C61.1221 45.216 61.4101 45.408 61.7621 45.408C62.1141 45.408 62.4181 45.184 62.6741 44.736C62.9301 44.256 63.1381 43.664 63.2981 42.96C63.4901 42.256 63.6181 41.472 63.6821 40.608C63.7781 39.744 63.8261 38.912 63.8261 38.112C63.8261 37.664 63.8101 37.248 63.7781 36.864C63.7781 36.48 63.7621 36.112 63.7301 35.76C63.4101 34.832 63.1541 33.808 62.9621 32.688C62.7701 31.568 62.6741 30.416 62.6741 29.232C62.6741 28.208 62.7381 27.52 62.8661 27.168C63.0261 26.784 63.3781 26.592 63.9221 26.592C64.2421 26.592 64.6581 26.672 65.1701 26.832C65.6821 26.992 66.0501 27.248 66.2741 27.6C66.4981 27.952 66.6261 28.48 66.6581 29.184C66.6901 29.856 66.7061 30.544 66.7061 31.248C66.7061 31.984 66.6581 32.8 66.5621 33.696C66.4981 34.592 66.4341 35.408 66.3701 36.144C66.7221 36.432 67.2181 36.576 67.8581 36.576C68.1141 36.576 68.3541 36.56 68.5781 36.528C68.8021 36.496 68.9781 36.48 69.1061 36.48C69.3941 36.48 69.5381 36.576 69.5381 36.768C69.5381 37.024 69.2821 37.248 68.7701 37.44C68.2581 37.6 67.7301 37.68 67.1861 37.68C66.7381 37.68 66.4181 37.648 66.2261 37.584C66.1301 39.184 65.9701 40.656 65.7461 42C65.5541 43.312 65.2821 44.448 64.9301 45.408C64.6101 46.368 64.2261 47.12 63.7781 47.664C63.3301 48.208 62.8181 48.48 62.2421 48.48C61.7941 48.48 61.3781 48.368 60.9941 48.144C60.6101 47.952 60.1781 47.664 59.6981 47.28C59.0581 46.768 58.5621 46.096 58.2101 45.264C57.8581 44.432 57.6021 43.536 57.4421 42.576C57.2821 41.616 57.1861 40.656 57.1541 39.696C57.1221 38.704 57.1061 37.84 57.1061 37.104C57.1061 35.632 57.2021 34.064 57.3941 32.4C57.6181 30.704 57.9221 29.152 58.3061 27.744C58.6901 26.304 59.1541 25.12 59.6981 24.192C60.2741 23.232 60.9141 22.752 61.6181 22.752C61.8101 22.752 62.0981 22.848 62.4821 23.04C62.8661 23.2 63.2341 23.408 63.5861 23.664C63.9701 23.888 64.2901 24.128 64.5461 24.384C64.8341 24.64 64.9781 24.848 64.9781 25.008ZM66.4552 27.984C66.4552 27.76 66.6312 27.632 66.9832 27.6C67.3353 27.568 67.6713 27.552 67.9913 27.552C68.2473 27.552 68.5993 27.584 69.0473 27.648C69.5273 27.712 69.9913 27.808 70.4393 27.936C70.9193 28.064 71.3193 28.256 71.6393 28.512C71.9913 28.736 72.1673 29.008 72.1673 29.328C72.1673 30.032 72.1513 30.88 72.1193 31.872C72.1193 32.832 72.1033 33.792 72.0713 34.752C72.0393 35.712 72.0073 36.576 71.9753 37.344C71.9753 38.112 71.9753 38.656 71.9753 38.976C72.9353 35.552 73.6873 32.896 74.2313 31.008C74.7753 29.12 75.2233 27.744 75.5753 26.88C75.9273 25.984 76.1993 25.456 76.3913 25.296C76.6153 25.104 76.8713 25.008 77.1593 25.008C77.3513 25.008 77.6233 25.056 77.9753 25.152C78.3593 25.248 78.7273 25.376 79.0793 25.536C79.4313 25.696 79.7353 25.888 79.9913 26.112C80.2793 26.304 80.4233 26.512 80.4233 26.736C80.4233 26.928 80.3113 27.44 80.0873 28.272C79.8953 29.104 79.6713 30.112 79.4153 31.296C79.1913 32.448 78.9833 33.696 78.7913 35.04C78.5993 36.384 78.5033 37.68 78.5033 38.928C78.5033 39.536 78.5033 40.112 78.5033 40.656C78.5353 41.2 78.5673 41.696 78.5993 42.144C78.6633 42.56 78.7593 42.896 78.8873 43.152C79.0153 43.408 79.2073 43.536 79.4633 43.536C79.7193 43.536 79.9273 43.392 80.0873 43.104C80.2473 42.816 80.3753 42.512 80.4713 42.192C80.5993 41.84 80.7113 41.52 80.8073 41.232C80.9353 40.944 81.0793 40.8 81.2393 40.8C81.4633 40.8 81.6073 40.944 81.6713 41.232C81.7353 41.488 81.7673 41.744 81.7673 42C81.7673 42.384 81.7033 42.816 81.5753 43.296C81.4793 43.776 81.3193 44.224 81.0953 44.64C80.8713 45.056 80.6153 45.408 80.3273 45.696C80.0393 45.984 79.7033 46.128 79.3193 46.128C78.9033 46.128 78.4873 45.904 78.0713 45.456C77.6553 44.976 77.2713 44.448 76.9193 43.872C76.6953 43.488 76.4553 42.976 76.1993 42.336C75.9753 41.664 75.8633 40.624 75.8633 39.216C75.8633 37.904 75.9273 36.528 76.0553 35.088C76.1833 33.616 76.2953 32.416 76.3913 31.488C76.1993 31.808 75.9433 32.336 75.6233 33.072C75.3353 33.808 75.0313 34.672 74.7113 35.664C74.3913 36.624 74.0553 37.664 73.7033 38.784C73.3833 39.872 73.0953 40.96 72.8393 42.048C72.5833 43.104 72.3753 44.112 72.2153 45.072C72.0553 46.032 71.9753 46.832 71.9753 47.472C71.9753 47.664 71.9273 47.808 71.8313 47.904C71.7673 48 71.6073 48.048 71.3513 48.048C70.8073 48.048 70.2633 47.904 69.7193 47.616C69.2073 47.296 68.8873 46.96 68.7593 46.608C68.7273 46.544 68.7113 46.384 68.7113 46.128C68.7113 45.84 68.7113 45.552 68.7113 45.264C68.7113 44.464 68.7753 43.312 68.9033 41.808C69.0313 40.272 69.0953 38.64 69.0953 36.912C69.0953 36.4 69.0953 35.792 69.0953 35.088C69.0953 34.352 69.0633 33.632 68.9993 32.928C68.9673 32.224 68.9033 31.568 68.8073 30.96C68.7433 30.352 68.6473 29.888 68.5193 29.568C68.3913 29.248 68.1993 29.008 67.9433 28.848C67.7193 28.656 67.4953 28.512 67.2713 28.416C67.0473 28.32 66.8552 28.256 66.6952 28.224C66.5352 28.16 66.4552 28.08 66.4552 27.984ZM79.9084 27.984C79.9084 27.76 80.0844 27.632 80.4364 27.6C80.7884 27.568 81.1244 27.552 81.4444 27.552C81.7004 27.552 82.0524 27.584 82.5004 27.648C82.9804 27.712 83.4444 27.808 83.8924 27.936C84.3724 28.064 84.7724 28.256 85.0924 28.512C85.4444 28.736 85.6204 29.008 85.6204 29.328C85.6204 30.032 85.6044 30.88 85.5724 31.872C85.5724 32.832 85.5564 33.792 85.5244 34.752C85.4924 35.712 85.4604 36.576 85.4284 37.344C85.4284 38.112 85.4284 38.656 85.4284 38.976C86.3884 35.552 87.1404 32.896 87.6844 31.008C88.2284 29.12 88.6764 27.744 89.0284 26.88C89.3804 25.984 89.6524 25.456 89.8444 25.296C90.0684 25.104 90.3244 25.008 90.6124 25.008C90.8044 25.008 91.0764 25.056 91.4284 25.152C91.8124 25.248 92.1804 25.376 92.5324 25.536C92.8844 25.696 93.1884 25.888 93.4444 26.112C93.7324 26.304 93.8764 26.512 93.8764 26.736C93.8764 26.928 93.7644 27.44 93.5404 28.272C93.3484 29.104 93.1244 30.112 92.8684 31.296C92.6444 32.448 92.4364 33.696 92.2444 35.04C92.0524 36.384 91.9564 37.68 91.9564 38.928C91.9564 39.536 91.9564 40.112 91.9564 40.656C91.9884 41.2 92.0204 41.696 92.0524 42.144C92.1164 42.56 92.2124 42.896 92.3404 43.152C92.4684 43.408 92.6604 43.536 92.9164 43.536C93.1724 43.536 93.3804 43.392 93.5404 43.104C93.7004 42.816 93.8284 42.512 93.9244 42.192C94.0524 41.84 94.1644 41.52 94.2604 41.232C94.3884 40.944 94.5324 40.8 94.6924 40.8C94.9164 40.8 95.0604 40.944 95.1244 41.232C95.1884 41.488 95.2204 41.744 95.2204 42C95.2204 42.384 95.1564 42.816 95.0284 43.296C94.9324 43.776 94.7724 44.224 94.5484 44.64C94.3244 45.056 94.0684 45.408 93.7804 45.696C93.4924 45.984 93.1564 46.128 92.7724 46.128C92.3564 46.128 91.9404 45.904 91.5244 45.456C91.1084 44.976 90.7244 44.448 90.3724 43.872C90.1484 43.488 89.9084 42.976 89.6524 42.336C89.4284 41.664 89.3164 40.624 89.3164 39.216C89.3164 37.904 89.3804 36.528 89.5084 35.088C89.6364 33.616 89.7484 32.416 89.8444 31.488C89.6524 31.808 89.3964 32.336 89.0764 33.072C88.7884 33.808 88.4844 34.672 88.1644 35.664C87.8444 36.624 87.5084 37.664 87.1564 38.784C86.8364 39.872 86.5484 40.96 86.2924 42.048C86.0364 43.104 85.8284 44.112 85.6684 45.072C85.5084 46.032 85.4284 46.832 85.4284 47.472C85.4284 47.664 85.3804 47.808 85.2844 47.904C85.2204 48 85.0604 48.048 84.8044 48.048C84.2604 48.048 83.7164 47.904 83.1724 47.616C82.6604 47.296 82.3404 46.96 82.2124 46.608C82.1804 46.544 82.1644 46.384 82.1644 46.128C82.1644 45.84 82.1644 45.552 82.1644 45.264C82.1644 44.464 82.2284 43.312 82.3564 41.808C82.4844 40.272 82.5484 38.64 82.5484 36.912C82.5484 36.4 82.5484 35.792 82.5484 35.088C82.5484 34.352 82.5164 33.632 82.4524 32.928C82.4204 32.224 82.3564 31.568 82.2604 30.96C82.1964 30.352 82.1004 29.888 81.9724 29.568C81.8444 29.248 81.6524 29.008 81.3964 28.848C81.1724 28.656 80.9484 28.512 80.7244 28.416C80.5004 28.32 80.3084 28.256 80.1484 28.224C79.9884 28.16 79.9084 28.08 79.9084 27.984ZM100.273 38.736C99.3135 38.736 98.3855 38.416 97.4895 37.776C97.4255 38.16 97.3935 38.544 97.3935 38.928C97.3935 39.312 97.3935 39.696 97.3935 40.08C97.3935 40.912 97.4255 41.696 97.4895 42.432C97.5855 43.136 97.7295 43.776 97.9215 44.352C98.1135 44.896 98.3695 45.328 98.6895 45.648C99.0095 45.968 99.4095 46.128 99.8895 46.128C100.658 46.128 101.234 45.76 101.618 45.024C102.034 44.288 102.354 43.488 102.578 42.624C102.802 41.728 102.962 40.912 103.058 40.176C103.186 39.44 103.33 39.072 103.49 39.072C103.618 39.072 103.874 39.312 104.258 39.792C104.642 40.24 104.834 40.992 104.834 42.048C104.834 42.752 104.722 43.488 104.498 44.256C104.306 44.992 104.018 45.664 103.634 46.272C103.25 46.88 102.77 47.392 102.194 47.808C101.65 48.192 101.01 48.384 100.273 48.384C99.5375 48.384 98.8015 48.224 98.0655 47.904C97.3615 47.552 96.7215 46.992 96.1455 46.224C95.6015 45.424 95.1535 44.384 94.8015 43.104C94.4815 41.824 94.3215 40.224 94.3215 38.304C94.3215 36.64 94.4335 35.072 94.6575 33.6C94.8815 32.096 95.1855 30.784 95.5695 29.664C95.9535 28.512 96.3855 27.616 96.8655 26.976C97.3775 26.304 97.9055 25.968 98.4495 25.968C98.8335 25.968 99.3455 26.112 99.9855 26.4C100.658 26.656 101.394 27.024 102.194 27.504C102.482 27.696 102.738 27.888 102.962 28.08C103.186 28.24 103.362 28.464 103.49 28.752C103.65 29.008 103.762 29.36 103.826 29.808C103.89 30.224 103.922 30.768 103.922 31.44C103.922 32.24 103.858 33.072 103.73 33.936C103.602 34.8 103.394 35.584 103.106 36.288C102.818 36.992 102.434 37.584 101.954 38.064C101.506 38.512 100.946 38.736 100.273 38.736ZM100.082 29.184C99.8255 29.184 99.5695 29.36 99.3135 29.712C99.0895 30.064 98.8655 30.544 98.6415 31.152C98.4495 31.76 98.2575 32.464 98.0655 33.264C97.9055 34.064 97.7615 34.896 97.6335 35.76C97.7615 36.112 97.9375 36.384 98.1615 36.576C98.4175 36.736 98.6575 36.816 98.8815 36.816C99.3615 36.816 99.8095 36.4 100.226 35.568C100.642 34.736 100.85 33.312 100.85 31.296C100.85 30.496 100.786 29.952 100.658 29.664C100.562 29.344 100.37 29.184 100.082 29.184ZM110.827 33.552C110.827 33.296 110.907 32.976 111.067 32.592C111.227 32.208 111.307 31.552 111.307 30.624C111.307 29.952 111.243 29.488 111.115 29.232C111.019 28.976 110.843 28.848 110.587 28.848C110.235 28.848 109.883 29.152 109.531 29.76C109.211 30.368 108.907 31.2 108.619 32.256C108.363 33.312 108.139 34.544 107.947 35.952C107.787 37.36 107.707 38.864 107.707 40.464C107.707 41.2 107.723 41.92 107.755 42.624C107.787 43.328 107.867 43.968 107.995 44.544C108.123 45.088 108.299 45.536 108.523 45.888C108.779 46.208 109.131 46.368 109.579 46.368C110.187 46.368 110.683 46.192 111.067 45.84C111.483 45.456 111.819 45.008 112.075 44.496C112.331 43.952 112.523 43.36 112.651 42.72C112.779 42.08 112.891 41.504 112.987 40.992C113.083 40.448 113.163 40 113.227 39.648C113.291 39.264 113.387 39.072 113.515 39.072C113.867 39.072 114.123 39.296 114.283 39.744C114.443 40.192 114.523 40.752 114.523 41.424C114.523 42.192 114.427 42.992 114.235 43.824C114.075 44.656 113.803 45.424 113.419 46.128C113.067 46.8 112.603 47.36 112.027 47.808C111.483 48.224 110.827 48.432 110.059 48.432C108.875 48.432 107.723 47.92 106.603 46.896C106.027 46.32 105.579 45.44 105.259 44.256C104.971 43.04 104.827 41.456 104.827 39.504C104.827 36.592 105.051 34.064 105.499 31.92C105.979 29.776 106.571 28.176 107.275 27.12C107.563 26.672 107.963 26.368 108.475 26.208C109.019 26.048 109.387 25.968 109.579 25.968C109.963 25.968 110.443 26.032 111.019 26.16C111.595 26.288 112.139 26.528 112.651 26.88C113.195 27.232 113.659 27.744 114.043 28.416C114.427 29.056 114.619 29.92 114.619 31.008C114.619 32.352 114.427 33.264 114.043 33.744C113.659 34.192 113.147 34.416 112.507 34.416C111.963 34.416 111.547 34.32 111.259 34.128C110.971 33.904 110.827 33.712 110.827 33.552ZM113.856 27.648C113.856 27.136 113.984 26.8 114.24 26.64C114.496 26.448 114.768 26.336 115.056 26.304L117.312 26.112C117.504 24.192 117.648 22.72 117.744 21.696C117.872 20.64 118 19.872 118.128 19.392C118.288 18.88 118.448 18.576 118.608 18.48C118.8 18.384 119.04 18.336 119.328 18.336C119.68 18.336 120.032 18.4 120.384 18.528C120.736 18.656 121.056 18.8 121.344 18.96C121.632 19.12 121.872 19.296 122.064 19.488C122.256 19.648 122.352 19.792 122.352 19.92C122.352 20.176 122.224 20.448 121.968 20.736C121.744 20.992 121.536 21.536 121.344 22.368C121.088 23.36 120.864 24.512 120.672 25.824C120.992 25.824 121.264 25.824 121.488 25.824C121.712 25.792 121.904 25.776 122.064 25.776C122.544 25.776 122.976 25.872 123.36 26.064C123.776 26.256 124.112 26.496 124.368 26.784C124.656 27.04 124.88 27.328 125.04 27.648C125.2 27.936 125.28 28.192 125.28 28.416C125.28 28.672 125.216 28.832 125.088 28.896C124.96 28.928 124.688 28.944 124.272 28.944C122.64 28.944 121.296 28.992 120.24 29.088C120.016 30.656 119.84 32.288 119.712 33.984C119.584 35.68 119.52 37.344 119.52 38.976C119.52 41.408 119.712 43.344 120.096 44.784C120.48 46.192 120.992 46.896 121.632 46.896C122.016 46.896 122.32 46.736 122.544 46.416C122.768 46.096 122.928 45.696 123.024 45.216C123.152 44.704 123.232 44.144 123.264 43.536C123.328 42.928 123.36 42.352 123.36 41.808C123.36 41.584 123.408 41.456 123.504 41.424C123.6 41.392 123.68 41.376 123.744 41.376C124.096 41.376 124.368 41.664 124.56 42.24C124.752 42.816 124.848 43.456 124.848 44.16C124.848 44.704 124.784 45.28 124.656 45.888C124.56 46.464 124.384 46.992 124.128 47.472C123.904 47.952 123.6 48.352 123.216 48.672C122.864 48.992 122.432 49.152 121.92 49.152C121.28 49.152 120.528 48.8 119.664 48.096C118.8 47.424 118.112 46.448 117.6 45.168C117.184 44.208 116.912 43.104 116.784 41.856C116.656 40.608 116.592 38.992 116.592 37.008C116.592 36.048 116.624 34.88 116.688 33.504C116.784 32.096 116.896 30.72 117.024 29.376C116.416 29.504 115.952 29.6 115.632 29.664C115.344 29.728 115.136 29.76 115.008 29.76C114.592 29.76 114.288 29.504 114.096 28.992C113.936 28.48 113.856 28.032 113.856 27.648Z" fill="black"/>
</svg>
